<svg id="svgexport-10" xmlns="http://www.w3.org/2000/svg" width="24.506" height="24.5" viewBox="0 0 24.506 24.5">
  <g id="Group_381" data-name="Group 381" transform="translate(2.815 5.106)">
    <g id="Group_380" data-name="Group 380">
      <path id="Path_938" data-name="Path 938" d="M60.995,106.856a.479.479,0,0,0-.675.044,10.583,10.583,0,0,0-1.443,2.109.479.479,0,1,0,.85.441,9.623,9.623,0,0,1,1.312-1.918A.479.479,0,0,0,60.995,106.856Z" transform="translate(-58.823 -106.737)" fill="#3f4170"/>
    </g>
  </g>
  <g id="Group_383" data-name="Group 383" transform="translate(2.282 8.331)">
    <g id="Group_382" data-name="Group 382">
      <path id="Path_939" data-name="Path 939" d="M48.321,174.143a.481.481,0,0,0-.612.29l0,.007a.478.478,0,0,0,.45.636.482.482,0,0,0,.452-.318l0-.007A.477.477,0,0,0,48.321,174.143Z" transform="translate(-47.679 -174.115)" fill="#3f4170"/>
    </g>
  </g>
  <g id="Group_385" data-name="Group 385" transform="translate(10.026 21.711)">
    <g id="Group_384" data-name="Group 384">
      <path id="Path_940" data-name="Path 940" d="M212.859,454.249a.478.478,0,0,0-.51-.445,9.628,9.628,0,0,1-2.321-.123.479.479,0,1,0-.166.943,10.58,10.58,0,0,0,1.832.16q.36,0,.719-.025A.479.479,0,0,0,212.859,454.249Z" transform="translate(-209.467 -453.674)" fill="#3f4170"/>
    </g>
  </g>
  <g id="Group_387" data-name="Group 387" transform="translate(13.77 21.663)">
    <g id="Group_386" data-name="Group 386">
      <path id="Path_941" data-name="Path 941" d="M288.658,453.046a.478.478,0,0,0-.561-.378l-.016,0a.479.479,0,0,0,.1.947.485.485,0,0,0,.1-.01h0A.479.479,0,0,0,288.658,453.046Z" transform="translate(-287.701 -452.659)" fill="#3f4170"/>
    </g>
  </g>
  <g id="Group_389" data-name="Group 389" transform="translate(0 0)">
    <g id="Group_388" data-name="Group 388">
      <path id="Path_942" data-name="Path 942" d="M24,8.84l-.022-.073c-.015-.05-.03-.1-.046-.15s-.036-.113-.055-.169l-.021-.065-.011-.032q-.038-.113-.079-.224l-.029-.078q-.036-.1-.073-.192l-.027-.07q-.048-.121-.1-.242L23.5,7.464q-.033-.078-.068-.155l-.055-.122-.045-.1A12.259,12.259,0,0,0,12.7.067h0L12.511.062h-.1l-.149,0A12.268,12.268,0,0,0,3.823,3.42l-.008.007c-.048.046-.1.093-.144.14l0,0-.14.14-.02.02A12.167,12.167,0,0,0,2.151,5.382h0q-.059.086-.117.174l-.011.016q-.156.237-.3.481l-.042.072-.065.112-.061.108-.054.1-.072.134-.043.081q-.054.1-.107.21l0,.009-.005.011q-.07.142-.136.285L1.1,7.245q-.054.118-.105.237l-.025.06q-.055.13-.107.26l-.013.034a12.143,12.143,0,0,0-.344,7.938l.022.075c.015.049.03.1.045.147s.037.116.057.174l.02.06.01.028q.039.116.081.23l.028.075q.036.1.075.2l.026.066q.049.123.1.244L1,17.147q.035.081.07.161l.054.119.048.1A12.257,12.257,0,0,0,12,24.555h.087l.158,0A12.268,12.268,0,0,0,20.683,21.2l.007-.006.139-.135.008-.008.138-.138L21,20.886a12.147,12.147,0,0,0,1.475-1.827l.008-.013q.157-.24.3-.487l.04-.067.066-.115.06-.106.055-.1.071-.132.043-.082q.054-.1.106-.209l0-.009.005-.011q.07-.142.136-.285l.031-.069q.054-.119.106-.239l.025-.058q.055-.131.108-.262l.013-.033A12.145,12.145,0,0,0,24,8.84ZM22.381,7.316l.01.019.064.133.046.1.049.107q.045.1.088.2l.032.076q.035.084.069.169l.025.063q.044.111.085.224l.023.064q.03.084.059.169l.03.087c.019.058.038.116.057.174s.036.117.054.175l.017.058q.051.175.1.353L21.831,11.83H17.456L15.269,8.041l2.187-3.789h2.711A11.233,11.233,0,0,1,22.381,7.316Zm-5.753,4.992L14.44,16.1H10.065L7.878,12.308l2.187-3.789H14.44Zm.63-10.12a11.415,11.415,0,0,1,1.8,1.107h-1.6l-.8-1.383Q16.96,2.041,17.258,2.188ZM9.231,1.43a11.306,11.306,0,0,1,3.031-.414h.217a11.206,11.206,0,0,1,2.794.41l1.354,2.346L14.44,7.562H10.065L7.878,3.774ZM7.856,1.9l-.807,1.4H5.435A11.17,11.17,0,0,1,7.856,1.9ZM1.405,9.174l.015-.049c.021-.073.043-.145.066-.218.014-.045.03-.09.045-.135s.029-.088.044-.132c.026-.076.054-.152.082-.228l.015-.04A11.376,11.376,0,0,1,2.133,7.3q.05-.1.1-.2l.028-.053L2.341,6.9l.031-.057L2.455,6.7l.026-.046q.051-.089.1-.177l.006-.01A11.21,11.21,0,0,1,4.338,4.252H7.049L9.237,8.041,7.049,11.829H2.674L1.321,9.484C1.347,9.381,1.375,9.277,1.405,9.174Zm-.354,4.51a11.258,11.258,0,0,1,0-2.758l.8,1.382Zm.274,1.44,1.35-2.338H7.049l2.187,3.789L7.049,20.364H4.342A11.324,11.324,0,0,1,1.325,15.124Zm5.923,7.3a11.3,11.3,0,0,1-1.8-1.107h1.6l.8,1.383Q7.545,22.575,7.248,22.428Zm8.027.757a11.3,11.3,0,0,1-3.031.415h-.215a11.2,11.2,0,0,1-2.8-.41L7.878,20.842l2.187-3.789H14.44l2.187,3.789Zm1.375-.467.807-1.4h1.614A11.17,11.17,0,0,1,16.65,22.719Zm5.859-5.69-.01.023q-.061.132-.125.262-.05.1-.1.2l-.031.059-.075.141-.034.061-.08.143-.028.049q-.05.086-.1.172l-.009.015a11.211,11.211,0,0,1-1.746,2.212H17.456l-2.187-3.789,2.187-3.789h4.375l1.355,2.346A11.353,11.353,0,0,1,22.509,17.028Zm.954-3.331-.8-1.389.8-1.387A11.155,11.155,0,0,1,23.462,13.7Z" transform="translate(0 -0.058)" fill="#3f4170"/>
    </g>
  </g>
</svg>
