<svg xmlns="http://www.w3.org/2000/svg" width="25" height="25" viewBox="0 0 25 25">
  <g id="Group_390" data-name="Group 390" transform="translate(0 0)">
    <path id="Path_943" data-name="Path 943" d="M25,12.637a.9.9,0,0,0-.5-.8,12.106,12.106,0,0,0-.162-1.405.841.841,0,0,0,.185-.176.778.778,0,0,0,.128-.684l-.005-.019a12.5,12.5,0,0,0-9.218-9.2.869.869,0,0,0-.214-.028.753.753,0,0,0-.642.342A12.123,12.123,0,0,0,13.168.5a.9.9,0,0,0-.826-.5A12.5,12.5,0,0,0,0,12.344a.9.9,0,0,0,.5.827,12.079,12.079,0,0,0,.162,1.405.841.841,0,0,0-.185.176.778.778,0,0,0-.128.684q0,.016.009.031a12.5,12.5,0,0,0,9.177,9.177l.031.009a.87.87,0,0,0,.219.029h0a.753.753,0,0,0,.642-.342,12.072,12.072,0,0,0,1.405.162.9.9,0,0,0,.8.5h.031l.031,0A12.5,12.5,0,0,0,25,12.655C25,12.649,25,12.643,25,12.637ZM11.636,23.513c-.325-.026-.65-.065-.972-.12A13.472,13.472,0,0,1,23.39,10.668c.054.321.094.646.12.972A12.5,12.5,0,0,0,11.636,23.513ZM1.609,14.337c-.054-.322-.094-.646-.12-.972A12.451,12.451,0,0,0,9.718,9.72a12.45,12.45,0,0,0,3.645-8.228c.325.026.65.066.972.12a13.438,13.438,0,0,1-3.926,8.8A13.439,13.439,0,0,1,1.609,14.337ZM4.351,4.354A11.46,11.46,0,0,1,12.32.98a.613.613,0,0,1,.046.124v0a.98.98,0,0,1,.029.158A11.48,11.48,0,0,1,9.027,9.03,11.479,11.479,0,0,1,1.262,12.4a.957.957,0,0,1-.15-.027l-.019-.005a.582.582,0,0,1-.116-.043A11.461,11.461,0,0,1,4.351,4.354Zm0,16.3a11.519,11.519,0,0,1-3.02-5.311.943.943,0,0,1,.162-.019h.018q.641-.028,1.273-.112a10.02,10.02,0,0,0,1.616,3.3.488.488,0,1,0,.784-.582,9.049,9.049,0,0,1-1.431-2.884A14.412,14.412,0,0,0,11.1,11.1a14.414,14.414,0,0,0,4.219-9.588c0-.006,0-.009,0-.015a.961.961,0,0,1,.02-.167,11.524,11.524,0,0,1,8.331,8.333.945.945,0,0,1-.163.02h-.018q-.641.028-1.272.112a10.018,10.018,0,0,0-1.616-3.3.488.488,0,1,0-.784.582,9.047,9.047,0,0,1,1.431,2.884A14.454,14.454,0,0,0,9.681,23.491c0,.006,0,.009,0,.015a.966.966,0,0,1-.019.165A11.518,11.518,0,0,1,4.351,20.651Zm16.3,0a11.462,11.462,0,0,1-7.97,3.374.62.62,0,0,1-.045-.123v0a.983.983,0,0,1-.029-.158A11.522,11.522,0,0,1,23.736,12.607a.877.877,0,0,1,.287.076A11.462,11.462,0,0,1,20.649,20.649Z" transform="translate(0 -0.002)" fill="#3f4170"/>
    <path id="Path_944" data-name="Path 944" d="M107.471,384.779a.493.493,0,1,0-.7.7l.021.021a.493.493,0,0,0,.692-.7Z" transform="translate(-101.425 -365.861)" fill="#3f4170"/>
    <path id="Path_945" data-name="Path 945" d="M385.162,107.857a.493.493,0,0,0,.7-.692l-.018-.018a.493.493,0,1,0-.7.692Z" transform="translate(-366.211 -101.777)" fill="#3f4170"/>
  </g>
</svg>
