<svg xmlns="http://www.w3.org/2000/svg" xmlns:xlink="http://www.w3.org/1999/xlink" width="225.323" height="86.67" viewBox="0 0 225.323 86.67">
  <defs>
    <linearGradient id="linear-gradient" x1="-2.808" y1="3.247" x2="-2.78" y2="3.247" gradientUnits="objectBoundingBox">
      <stop offset="0" stop-color="#5ee8ff"/>
      <stop offset="0" stop-color="#568e97"/>
      <stop offset="1" stop-color="#3f4170"/>
    </linearGradient>
    <clipPath id="clip-path">
      <path id="path244" d="M133.532-268.007h27.006v-86.67H133.532Z" transform="translate(-133.532 354.678)"/>
    </clipPath>
    <linearGradient id="linear-gradient-5" x1="-7.546" y1="20.935" x2="-7.471" y2="20.935" gradientUnits="objectBoundingBox">
      <stop offset="0" stop-color="#34a2b4"/>
      <stop offset="1" stop-color="#3f4170"/>
    </linearGradient>
  </defs>
  <g id="Group_2031" data-name="Group 2031" transform="translate(2124.468 -3824.176)">
    <g id="g84" transform="translate(-2102.053 3825.585)">
      <g id="g86" transform="translate(0 0)">
        <g id="g92">
          <g id="g94">
            <path id="path104" d="M177.808-312.106l-4.46,8.71H183.1l4.46-8.71,10.661-20.905,10.662,20.905,4.459,8.71H223.1l-4.459-8.71-20.417-40.068Z" transform="translate(-173.348 352.174)" fill="url(#linear-gradient)"/>
          </g>
        </g>
      </g>
    </g>
    <g id="g118" transform="translate(-2048.124 3825.585)">
      <g id="g120" transform="translate(0 0)">
        <g id="g126">
          <g id="g128">
            <path id="path138" d="M269.145-303.4h24.389a23.945,23.945,0,0,0,17.142-7.177h0c.488-.488.976-.976,1.394-1.463h0a24.186,24.186,0,0,0,5.784-15.749h0a24.357,24.357,0,0,0-24.39-24.319h0l-24.319-.07Zm8.641-40h15.678a15.7,15.7,0,0,1,15.679,15.678h0a15.7,15.7,0,0,1-15.679,15.68H277.786Z" transform="translate(-269.145 352.174)" fill="url(#linear-gradient)"/>
          </g>
        </g>
      </g>
    </g>
    <g id="g152" transform="translate(-1992.311 3825.585)">
      <g id="g154" transform="translate(0 0)">
        <g id="g160">
          <g id="g162">
            <path id="path172" d="M381.384-352.174A13.144,13.144,0,0,0,368.284-339h0v22.438a13.144,13.144,0,0,0,13.1,13.17h35.608v-8.71H381.384a4.491,4.491,0,0,1-4.459-4.46h0v-9.2h31.358v-8.71H376.925V-339a4.491,4.491,0,0,1,4.459-4.459h35.608v-8.71Z" transform="translate(-368.284 352.174)" fill="url(#linear-gradient)"/>
          </g>
        </g>
      </g>
    </g>
    <g id="g186" transform="translate(-1936.64 3825.655)">
      <g id="g188" transform="translate(0 0)">
        <g id="g194">
          <g id="g196">
            <path id="path206" d="M467.175-352.05v33.238a15.149,15.149,0,0,0,1.6,6.83h0a15.452,15.452,0,0,0,7.039,7.107h0a15.133,15.133,0,0,0,6.828,1.6h21.661v-8.719l-22.5-.061a6.947,6.947,0,0,1-5.923-5.923h0V-352.05Z" transform="translate(-467.175 352.05)" fill="url(#linear-gradient)"/>
          </g>
        </g>
      </g>
    </g>
    <g id="g240" transform="translate(-2124.468 3824.176)">
      <g id="g242" transform="translate(0 0)" clip-path="url(#clip-path)">
        <g id="g248" transform="translate(-4.181 6.85)">
          <path id="path250" d="M-.9-1.791A1.154,1.154,0,0,0,.258-2.945,1.154,1.154,0,0,0-.9-4.1,1.154,1.154,0,0,0-2.049-2.945,1.154,1.154,0,0,0-.9-1.791" transform="translate(2.049 4.099)" fill="#fff"/>
        </g>
        <g id="g252" transform="translate(-0.292 31.6)">
          <path id="path254" d="M-.9-1.791A1.154,1.154,0,0,0,.258-2.944,1.153,1.153,0,0,0-.9-4.1,1.153,1.153,0,0,0-2.049-2.944,1.154,1.154,0,0,0-.9-1.791" transform="translate(2.049 4.097)" fill="#fff"/>
        </g>
        <g id="g256" transform="translate(-0.292 28.343)">
          <path id="path258" d="M-.9-1.791A1.154,1.154,0,0,0,.258-2.944,1.153,1.153,0,0,0-.9-4.1,1.153,1.153,0,0,0-2.049-2.944,1.154,1.154,0,0,0-.9-1.791" transform="translate(2.049 4.097)" fill="#fff"/>
        </g>
        <g id="g260" transform="translate(-0.292 24.761)">
          <path id="path262" d="M-.9-1.791A1.154,1.154,0,0,0,.258-2.945,1.154,1.154,0,0,0-.9-4.1,1.154,1.154,0,0,0-2.049-2.945,1.154,1.154,0,0,0-.9-1.791" transform="translate(2.049 4.099)" fill="#fff"/>
        </g>
        <g id="g264" transform="translate(-0.292 14.015)">
          <path id="path266" d="M-.9-1.791A1.154,1.154,0,0,0,.258-2.945,1.154,1.154,0,0,0-.9-4.1,1.154,1.154,0,0,0-2.049-2.945,1.154,1.154,0,0,0-.9-1.791" transform="translate(2.049 4.099)" fill="#fff"/>
        </g>
        <g id="g268" transform="translate(-0.292 10.433)">
          <path id="path270" d="M-.9-1.791A1.154,1.154,0,0,0,.258-2.944,1.153,1.153,0,0,0-.9-4.1,1.153,1.153,0,0,0-2.049-2.944,1.154,1.154,0,0,0-.9-1.791" transform="translate(2.049 4.097)" fill="#fff"/>
        </g>
        <g id="g272" transform="translate(-0.292 21.179)">
          <path id="path274" d="M-.9-1.791A1.154,1.154,0,0,0,.258-2.944,1.153,1.153,0,0,0-.9-4.1,1.153,1.153,0,0,0-2.049-2.944,1.154,1.154,0,0,0-.9-1.791" transform="translate(2.049 4.097)" fill="#fff"/>
        </g>
        <g id="g276" transform="translate(-0.292 17.597)">
          <path id="path278" d="M-.9-1.791A1.154,1.154,0,0,0,.258-2.945,1.154,1.154,0,0,0-.9-4.1,1.154,1.154,0,0,0-2.049-2.945,1.154,1.154,0,0,0-.9-1.791" transform="translate(2.049 4.099)" fill="#fff"/>
        </g>
        <g id="g280" transform="translate(-4.181 10.433)">
          <path id="path282" d="M-.9-1.791A1.154,1.154,0,0,0,.258-2.944,1.153,1.153,0,0,0-.9-4.1,1.153,1.153,0,0,0-2.049-2.944,1.154,1.154,0,0,0-.9-1.791" transform="translate(2.049 4.097)" fill="#fff"/>
        </g>
        <g id="g284" transform="translate(-4.181 28.343)">
          <path id="path286" d="M-.9-1.791A1.154,1.154,0,0,0,.258-2.944,1.153,1.153,0,0,0-.9-4.1,1.153,1.153,0,0,0-2.049-2.944,1.154,1.154,0,0,0-.9-1.791" transform="translate(2.049 4.097)" fill="#fff"/>
        </g>
        <g id="g288" transform="translate(-4.181 24.761)">
          <path id="path290" d="M-.9-1.791A1.154,1.154,0,0,0,.258-2.945,1.154,1.154,0,0,0-.9-4.1,1.154,1.154,0,0,0-2.049-2.945,1.154,1.154,0,0,0-.9-1.791" transform="translate(2.049 4.099)" fill="#fff"/>
        </g>
        <g id="g292" transform="translate(-11.959 28.343)">
          <path id="path294" d="M-.9,0A1.154,1.154,0,0,0-2.049,1.154,1.153,1.153,0,0,0-.9,2.307,1.153,1.153,0,0,0,.258,1.154,1.154,1.154,0,0,0-.9,0" transform="translate(2.049)" fill="#fff"/>
        </g>
        <g id="g296" transform="translate(-4.181 31.6)">
          <path id="path298" d="M-.9-1.791A1.154,1.154,0,0,0,.258-2.944,1.153,1.153,0,0,0-.9-4.1,1.153,1.153,0,0,0-2.049-2.944,1.154,1.154,0,0,0-.9-1.791" transform="translate(2.049 4.097)" fill="#fff"/>
        </g>
        <g id="g300" transform="translate(-4.181 14.015)">
          <path id="path302" d="M-.9-1.791A1.154,1.154,0,0,0,.258-2.945,1.154,1.154,0,0,0-.9-4.1,1.154,1.154,0,0,0-2.049-2.945,1.154,1.154,0,0,0-.9-1.791" transform="translate(2.049 4.099)" fill="#fff"/>
        </g>
        <g id="g304" transform="translate(-4.181 17.597)">
          <path id="path306" d="M-.9-1.791A1.154,1.154,0,0,0,.258-2.945,1.154,1.154,0,0,0-.9-4.1,1.154,1.154,0,0,0-2.049-2.945,1.154,1.154,0,0,0-.9-1.791" transform="translate(2.049 4.099)" fill="#fff"/>
        </g>
        <g id="g308" transform="translate(-4.181 21.179)">
          <path id="path310" d="M-.9-1.791A1.154,1.154,0,0,0,.258-2.944,1.153,1.153,0,0,0-.9-4.1,1.153,1.153,0,0,0-2.049-2.944,1.154,1.154,0,0,0-.9-1.791" transform="translate(2.049 4.097)" fill="#fff"/>
        </g>
        <g id="g312" transform="translate(-11.959 24.761)">
          <path id="path314" d="M-.9,0A1.154,1.154,0,0,0-2.049,1.154,1.154,1.154,0,0,0-.9,2.307,1.154,1.154,0,0,0,.258,1.154,1.154,1.154,0,0,0-.9,0" transform="translate(2.049)" fill="#fff"/>
        </g>
        <g id="g316" transform="translate(7.486 17.597)">
          <path id="path318" d="M-.9-1.791A1.154,1.154,0,0,0,.258-2.945,1.154,1.154,0,0,0-.9-4.1,1.154,1.154,0,0,0-2.049-2.945,1.154,1.154,0,0,0-.9-1.791" transform="translate(2.049 4.099)" fill="#fff"/>
        </g>
        <g id="g320" transform="translate(7.486 24.761)">
          <path id="path322" d="M-.9-1.791A1.154,1.154,0,0,0,.258-2.945,1.154,1.154,0,0,0-.9-4.1,1.154,1.154,0,0,0-2.049-2.945,1.154,1.154,0,0,0-.9-1.791" transform="translate(2.049 4.099)" fill="#fff"/>
        </g>
        <g id="g324" transform="translate(7.486 21.179)">
          <path id="path326" d="M-.9-1.791A1.154,1.154,0,0,0,.258-2.944,1.153,1.153,0,0,0-.9-4.1,1.153,1.153,0,0,0-2.049-2.944,1.154,1.154,0,0,0-.9-1.791" transform="translate(2.049 4.097)" fill="#fff"/>
        </g>
        <g id="g328" transform="translate(7.486 28.343)">
          <path id="path330" d="M-.9-1.791A1.154,1.154,0,0,0,.258-2.944,1.153,1.153,0,0,0-.9-4.1,1.153,1.153,0,0,0-2.049-2.944,1.154,1.154,0,0,0-.9-1.791" transform="translate(2.049 4.097)" fill="#fff"/>
        </g>
        <g id="g332" transform="translate(7.486 14.015)">
          <path id="path334" d="M-.9-1.791A1.154,1.154,0,0,0,.258-2.945,1.154,1.154,0,0,0-.9-4.1,1.154,1.154,0,0,0-2.049-2.945,1.154,1.154,0,0,0-.9-1.791" transform="translate(2.049 4.099)" fill="#fff"/>
        </g>
        <g id="g336" transform="translate(7.486 31.6)">
          <path id="path338" d="M-.9-1.791A1.154,1.154,0,0,0,.258-2.944,1.153,1.153,0,0,0-.9-4.1,1.153,1.153,0,0,0-2.049-2.944,1.154,1.154,0,0,0-.9-1.791" transform="translate(2.049 4.097)" fill="#fff"/>
        </g>
        <g id="g340" transform="translate(7.486 6.85)">
          <path id="path342" d="M-.9-1.791A1.154,1.154,0,0,0,.258-2.945,1.154,1.154,0,0,0-.9-4.1,1.154,1.154,0,0,0-2.049-2.945,1.154,1.154,0,0,0-.9-1.791" transform="translate(2.049 4.099)" fill="#fff"/>
        </g>
        <g id="g344" transform="translate(7.486 10.433)">
          <path id="path346" d="M-.9-1.791A1.154,1.154,0,0,0,.258-2.944,1.153,1.153,0,0,0-.9-4.1,1.153,1.153,0,0,0-2.049-2.944,1.154,1.154,0,0,0-.9-1.791" transform="translate(2.049 4.097)" fill="#fff"/>
        </g>
        <g id="g348" transform="translate(-0.292 6.85)">
          <path id="path350" d="M-.9-1.791A1.154,1.154,0,0,0,.258-2.945,1.154,1.154,0,0,0-.9-4.1,1.154,1.154,0,0,0-2.049-2.945,1.154,1.154,0,0,0-.9-1.791" transform="translate(2.049 4.099)" fill="#fff"/>
        </g>
        <g id="g352" transform="translate(3.597 28.343)">
          <path id="path354" d="M-.9-1.791A1.154,1.154,0,0,0,.258-2.944,1.153,1.153,0,0,0-.9-4.1,1.153,1.153,0,0,0-2.049-2.944,1.154,1.154,0,0,0-.9-1.791" transform="translate(2.049 4.097)" fill="#fff"/>
        </g>
        <g id="g356" transform="translate(3.597 24.761)">
          <path id="path358" d="M-.9-1.791A1.154,1.154,0,0,0,.258-2.945,1.154,1.154,0,0,0-.9-4.1,1.154,1.154,0,0,0-2.049-2.945,1.154,1.154,0,0,0-.9-1.791" transform="translate(2.049 4.099)" fill="#fff"/>
        </g>
        <g id="g360" transform="translate(3.597 31.6)">
          <path id="path362" d="M-.9-1.791A1.154,1.154,0,0,0,.258-2.944,1.153,1.153,0,0,0-.9-4.1,1.153,1.153,0,0,0-2.049-2.944,1.154,1.154,0,0,0-.9-1.791" transform="translate(2.049 4.097)" fill="#fff"/>
        </g>
        <g id="g364" transform="translate(3.597 21.179)">
          <path id="path366" d="M-.9-1.791A1.154,1.154,0,0,0,.258-2.944,1.153,1.153,0,0,0-.9-4.1,1.153,1.153,0,0,0-2.049-2.944,1.154,1.154,0,0,0-.9-1.791" transform="translate(2.049 4.097)" fill="#fff"/>
        </g>
        <g id="g368" transform="translate(3.597 17.597)">
          <path id="path370" d="M-.9-1.791A1.154,1.154,0,0,0,.258-2.945,1.154,1.154,0,0,0-.9-4.1,1.154,1.154,0,0,0-2.049-2.945,1.154,1.154,0,0,0-.9-1.791" transform="translate(2.049 4.099)" fill="#fff"/>
        </g>
        <g id="g372" transform="translate(3.597 10.433)">
          <path id="path374" d="M-.9-1.791A1.154,1.154,0,0,0,.258-2.944,1.153,1.153,0,0,0-.9-4.1,1.153,1.153,0,0,0-2.049-2.944,1.154,1.154,0,0,0-.9-1.791" transform="translate(2.049 4.097)" fill="#fff"/>
        </g>
        <g id="g376" transform="translate(3.597 14.015)">
          <path id="path378" d="M-.9-1.791A1.154,1.154,0,0,0,.258-2.945,1.154,1.154,0,0,0-.9-4.1,1.154,1.154,0,0,0-2.049-2.945,1.154,1.154,0,0,0-.9-1.791" transform="translate(2.049 4.099)" fill="#fff"/>
        </g>
        <g id="g380" transform="translate(3.597 6.85)">
          <path id="path382" d="M-.9-1.791A1.154,1.154,0,0,0,.258-2.945,1.154,1.154,0,0,0-.9-4.1,1.154,1.154,0,0,0-2.049-2.945,1.154,1.154,0,0,0-.9-1.791" transform="translate(2.049 4.099)" fill="#fff"/>
        </g>
        <g id="g384" transform="translate(11.376 31.6)">
          <path id="path386" d="M-.9,0A1.154,1.154,0,0,0-2.049,1.154,1.153,1.153,0,0,0-.9,2.307,1.153,1.153,0,0,0,.258,1.154,1.154,1.154,0,0,0-.9,0" transform="translate(2.049)" fill="#fff"/>
        </g>
        <g id="g388" transform="translate(11.376 21.179)">
          <path id="path390" d="M-.9,0A1.154,1.154,0,0,0-2.049,1.154,1.153,1.153,0,0,0-.9,2.307,1.153,1.153,0,0,0,.258,1.154,1.154,1.154,0,0,0-.9,0" transform="translate(2.049)" fill="#fff"/>
        </g>
        <g id="g392" transform="translate(11.376 6.851)">
          <path id="path394" d="M-.9,0A1.154,1.154,0,0,0-2.049,1.154,1.154,1.154,0,0,0-.9,2.307,1.154,1.154,0,0,0,.258,1.154,1.154,1.154,0,0,0-.9,0" transform="translate(2.049)" fill="#fff"/>
        </g>
        <g id="g396" transform="translate(11.376 17.597)">
          <path id="path398" d="M-.9,0A1.154,1.154,0,0,0-2.049,1.154,1.154,1.154,0,0,0-.9,2.307,1.154,1.154,0,0,0,.258,1.154,1.154,1.154,0,0,0-.9,0" transform="translate(2.049)" fill="#fff"/>
        </g>
        <g id="g400" transform="translate(11.376 10.433)">
          <path id="path402" d="M-.9,0A1.154,1.154,0,0,0-2.049,1.154,1.153,1.153,0,0,0-.9,2.307,1.153,1.153,0,0,0,.258,1.154,1.154,1.154,0,0,0-.9,0" transform="translate(2.049)" fill="#fff"/>
        </g>
        <g id="g404" transform="translate(11.376 14.015)">
          <path id="path406" d="M-.9,0A1.154,1.154,0,0,0-2.049,1.154,1.154,1.154,0,0,0-.9,2.307,1.154,1.154,0,0,0,.258,1.154,1.154,1.154,0,0,0-.9,0" transform="translate(2.049)" fill="#fff"/>
        </g>
        <g id="g408" transform="translate(-11.959 21.179)">
          <path id="path410" d="M-.9,0A1.154,1.154,0,0,0-2.049,1.154,1.153,1.153,0,0,0-.9,2.307,1.153,1.153,0,0,0,.258,1.154,1.154,1.154,0,0,0-.9,0" transform="translate(2.049)" fill="#fff"/>
        </g>
        <g id="g412" transform="translate(-8.07 31.6)">
          <path id="path414" d="M-.9,0A1.154,1.154,0,0,0-2.049,1.154,1.153,1.153,0,0,0-.9,2.307,1.153,1.153,0,0,0,.258,1.154,1.154,1.154,0,0,0-.9,0" transform="translate(2.049)" fill="#fff"/>
        </g>
        <g id="g416" transform="translate(-8.07 21.179)">
          <path id="path418" d="M-.9,0A1.154,1.154,0,0,0-2.049,1.154,1.153,1.153,0,0,0-.9,2.307,1.153,1.153,0,0,0,.258,1.154,1.154,1.154,0,0,0-.9,0" transform="translate(2.049)" fill="#fff"/>
        </g>
        <g id="g420" transform="translate(-8.07 28.343)">
          <path id="path422" d="M-.9,0A1.154,1.154,0,0,0-2.049,1.154,1.153,1.153,0,0,0-.9,2.307,1.153,1.153,0,0,0,.258,1.154,1.154,1.154,0,0,0-.9,0" transform="translate(2.049)" fill="#fff"/>
        </g>
        <g id="g424" transform="translate(-8.07 24.761)">
          <path id="path426" d="M-.9,0A1.154,1.154,0,0,0-2.049,1.154,1.154,1.154,0,0,0-.9,2.307,1.154,1.154,0,0,0,.258,1.154,1.154,1.154,0,0,0-.9,0" transform="translate(2.049)" fill="#fff"/>
        </g>
        <g id="g428" transform="translate(11.376 24.761)">
          <path id="path430" d="M-.9,0A1.154,1.154,0,0,0-2.049,1.154,1.154,1.154,0,0,0-.9,2.307,1.154,1.154,0,0,0,.258,1.154,1.154,1.154,0,0,0-.9,0" transform="translate(2.049)" fill="#fff"/>
        </g>
        <g id="g432" transform="translate(-11.959 17.597)">
          <path id="path434" d="M-.9,0A1.154,1.154,0,0,0-2.049,1.154,1.154,1.154,0,0,0-.9,2.307,1.154,1.154,0,0,0,.258,1.154,1.154,1.154,0,0,0-.9,0" transform="translate(2.049)" fill="#fff"/>
        </g>
        <g id="g436" transform="translate(-11.959 14.015)">
          <path id="path438" d="M-.9,0A1.154,1.154,0,0,0-2.049,1.154,1.154,1.154,0,0,0-.9,2.307,1.154,1.154,0,0,0,.258,1.154,1.154,1.154,0,0,0-.9,0" transform="translate(2.049)" fill="#fff"/>
        </g>
        <g id="g440" transform="translate(-11.959 10.433)">
          <path id="path442" d="M-.9,0A1.154,1.154,0,0,0-2.049,1.154,1.153,1.153,0,0,0-.9,2.307,1.153,1.153,0,0,0,.258,1.154,1.154,1.154,0,0,0-.9,0" transform="translate(2.049)" fill="#fff"/>
        </g>
      </g>
    </g>
    <g id="g444" transform="translate(-2124.468 3869.02)">
      <g id="g446" transform="translate(0 0)">
        <g id="g452">
          <g id="g454">
            <path id="path464" d="M138.888-274.425a8.8,8.8,0,0,1-5.1,0h0l-.257-.076h0v5.9a4.537,4.537,0,0,0,5.718-.083h0c2.289-1.877,4.71-4.555,4.166-5.757h0c-.193-.423-.718-.582-1.4-.582h0a11.935,11.935,0,0,0-3.128.6" transform="translate(-133.532 275.021)" fill="url(#linear-gradient-5)"/>
          </g>
        </g>
      </g>
    </g>
    <g id="g466" transform="translate(-2124.468 3824.176)">
      <g id="g468" transform="translate(0 0)" clip-path="url(#clip-path)">
        <g id="g474" transform="translate(11.376 28.343)">
          <path id="path476" d="M-.9,0A1.154,1.154,0,0,0-2.049,1.154,1.153,1.153,0,0,0-.9,2.307,1.153,1.153,0,0,0,.258,1.154,1.154,1.154,0,0,0-.9,0" transform="translate(2.049)" fill="#fff"/>
        </g>
        <g id="g478" transform="translate(-8.07 6.851)">
          <path id="path480" d="M-.9,0A1.154,1.154,0,0,0-2.049,1.154,1.154,1.154,0,0,0-.9,2.307,1.154,1.154,0,0,0,.258,1.154,1.154,1.154,0,0,0-.9,0" transform="translate(2.049)" fill="#fff"/>
        </g>
        <g id="g482" transform="translate(-8.07 14.015)">
          <path id="path484" d="M-.9,0A1.154,1.154,0,0,0-2.049,1.154,1.154,1.154,0,0,0-.9,2.307,1.154,1.154,0,0,0,.258,1.154,1.154,1.154,0,0,0-.9,0" transform="translate(2.049)" fill="#fff"/>
        </g>
        <g id="g486" transform="translate(-8.07 10.433)">
          <path id="path488" d="M-.9,0A1.154,1.154,0,0,0-2.049,1.154,1.153,1.153,0,0,0-.9,2.307,1.153,1.153,0,0,0,.258,1.154,1.154,1.154,0,0,0-.9,0" transform="translate(2.049)" fill="#fff"/>
        </g>
        <g id="g490" transform="translate(-8.07 17.597)">
          <path id="path492" d="M-.9,0A1.154,1.154,0,0,0-2.049,1.154,1.154,1.154,0,0,0-.9,2.307,1.154,1.154,0,0,0,.258,1.154,1.154,1.154,0,0,0-.9,0" transform="translate(2.049)" fill="#fff"/>
        </g>
        <g id="g494" transform="translate(-1.23 76.895)">
          <path id="path496" d="M-.607,0C-.614.274-.618.446-.618.482l-.771,4.462A.653.653,0,0,0-.739,5.6H6.03a.653.653,0,0,0,.654-.654l-.622-3.6Z" transform="translate(1.389)" fill="#649cdc"/>
        </g>
      </g>
    </g>
    <g id="g498" transform="translate(-2124.468 3901.161)">
      <g id="g500" transform="translate(0 0)">
        <g id="g506">
          <g id="g508">
            <path id="path518" d="M133.532-212.419h6.19a.653.653,0,0,0,.654-.655h0l-.622-3.6-6.221-1.253Z" transform="translate(-133.532 217.927)" fill="url(#linear-gradient)"/>
          </g>
        </g>
      </g>
    </g>
    <g id="g520" transform="translate(-2124.468 3824.176)">
      <g id="g522" transform="translate(0 0)" clip-path="url(#clip-path)">
        <g id="g528" transform="translate(-0.388 73.214)">
          <path id="path530" d="M0-1.238,6.426.056c-.013-.45-.028-1-.044-1.613L.044-2.833C.028-2.261.014-1.725,0-1.238" transform="translate(0 2.833)" fill="#649cdc"/>
        </g>
      </g>
    </g>
    <g id="g532" transform="translate(-2124.468 3897.459)">
      <g id="g534" transform="translate(0 0)">
        <g id="g540">
          <g id="g542">
            <path id="path552" d="M133.532-222.9l6.037,1.216c-.012-.451-.027-1-.044-1.613h0l-5.993-1.207Z" transform="translate(-133.532 224.503)" fill="url(#linear-gradient)"/>
          </g>
        </g>
      </g>
    </g>
    <g id="g554" transform="translate(-2124.468 3824.176)">
      <g id="g556" transform="translate(0 0)" clip-path="url(#clip-path)">
        <g id="g562" transform="translate(-0.287 69.431)">
          <path id="path564" d="M0-1.239,6.221.014C6.208-.5,6.193-1.047,6.179-1.6L.041-2.835C.027-2.295.014-1.761,0-1.239" transform="translate(0 2.835)" fill="#649cdc"/>
        </g>
      </g>
    </g>
    <g id="g566" transform="translate(-2124.468 3893.656)">
      <g id="g568" transform="translate(0 0)">
        <g id="g574">
          <g id="g576">
            <path id="path586" d="M133.532-229.655l5.934,1.194c-.014-.519-.028-1.061-.042-1.612h0l-5.892-1.187Z" transform="translate(-133.532 231.259)" fill="url(#linear-gradient)"/>
          </g>
        </g>
      </g>
    </g>
    <g id="g588" transform="translate(-2124.468 3824.176)">
      <g id="g590" transform="translate(0 0)" clip-path="url(#clip-path)">
        <g id="g596" transform="translate(0 63.522)">
          <path id="path598" d="M0,0,5.749,1.157C5.741.758,5.733.373,5.726,0Z" fill="#649cdc"/>
        </g>
      </g>
    </g>
    <g id="g600" transform="translate(-2124.468 3887.698)">
      <g id="g602" transform="translate(0 0)">
        <g id="g608">
          <g id="g610">
            <path id="path620" d="M133.532-241.842l5.748,1.157q-.011-.6-.022-1.157h-5.726Z" transform="translate(-133.532 241.842)" fill="url(#linear-gradient)"/>
          </g>
        </g>
      </g>
    </g>
    <g id="g622" transform="translate(-2124.468 3824.684)">
      <g id="g624" transform="translate(0 0)">
        <g id="g630">
          <g id="g632">
            <path id="path642" d="M133.532-353.686v61.256h5.693c0-.4-.006-.759-.006-1.061h0c0-6.19,9.579-11.72,15.328-21.505h0c2.762-4.7,7.457-13.876,5.133-24.325h0c-2.82-12.671-16.031-14.455-23.344-14.455h0c-.862,0-1.805.025-2.805.089" transform="translate(-133.532 353.775)" fill="url(#linear-gradient)"/>
          </g>
        </g>
      </g>
    </g>
    <g id="g644" transform="translate(-2124.468 3824.176)">
      <g id="g646" transform="translate(0 0)" clip-path="url(#clip-path)">
        <g id="g652" transform="translate(7.486 6.851)">
          <path id="path654" d="M-.9,0A1.154,1.154,0,0,1,.258,1.154,1.154,1.154,0,0,1-.9,2.307,1.154,1.154,0,0,1-2.049,1.154,1.154,1.154,0,0,1-.9,0" transform="translate(2.049)" fill="#fff"/>
        </g>
        <g id="g656" transform="translate(7.486 10.433)">
          <path id="path658" d="M-.9,0A1.154,1.154,0,0,1,.258,1.154,1.153,1.153,0,0,1-.9,2.307,1.153,1.153,0,0,1-2.049,1.154,1.154,1.154,0,0,1-.9,0" transform="translate(2.049)" fill="#fff"/>
        </g>
        <g id="g660" transform="translate(7.486 14.015)">
          <path id="path662" d="M-.9,0A1.154,1.154,0,0,1,.258,1.154,1.154,1.154,0,0,1-.9,2.307,1.154,1.154,0,0,1-2.049,1.154,1.154,1.154,0,0,1-.9,0" transform="translate(2.049)" fill="#fff"/>
        </g>
        <g id="g664" transform="translate(7.486 17.597)">
          <path id="path666" d="M-.9,0A1.154,1.154,0,0,1,.258,1.154,1.154,1.154,0,0,1-.9,2.307,1.154,1.154,0,0,1-2.049,1.154,1.154,1.154,0,0,1-.9,0" transform="translate(2.049)" fill="#fff"/>
        </g>
        <g id="g668" transform="translate(7.486 21.179)">
          <path id="path670" d="M-.9,0A1.154,1.154,0,0,1,.258,1.154,1.153,1.153,0,0,1-.9,2.307,1.153,1.153,0,0,1-2.049,1.154,1.154,1.154,0,0,1-.9,0" transform="translate(2.049)" fill="#fff"/>
        </g>
        <g id="g672" transform="translate(7.486 24.761)">
          <path id="path674" d="M-.9,0A1.154,1.154,0,0,1,.258,1.154,1.154,1.154,0,0,1-.9,2.307,1.154,1.154,0,0,1-2.049,1.154,1.154,1.154,0,0,1-.9,0" transform="translate(2.049)" fill="#fff"/>
        </g>
        <g id="g676" transform="translate(7.486 28.343)">
          <path id="path678" d="M-.9,0A1.154,1.154,0,0,1,.258,1.154,1.153,1.153,0,0,1-.9,2.307,1.153,1.153,0,0,1-2.049,1.154,1.154,1.154,0,0,1-.9,0" transform="translate(2.049)" fill="#fff"/>
        </g>
        <g id="g680" transform="translate(7.486 31.6)">
          <path id="path682" d="M-.9,0A1.154,1.154,0,0,1,.258,1.154,1.153,1.153,0,0,1-.9,2.307,1.153,1.153,0,0,1-2.049,1.154,1.154,1.154,0,0,1-.9,0" transform="translate(2.049)" fill="#fff"/>
        </g>
        <g id="g684" transform="translate(3.597 6.851)">
          <path id="path686" d="M-.9,0A1.154,1.154,0,0,1,.258,1.154,1.154,1.154,0,0,1-.9,2.307,1.154,1.154,0,0,1-2.049,1.154,1.154,1.154,0,0,1-.9,0" transform="translate(2.049)" fill="#fff"/>
        </g>
        <g id="g688" transform="translate(3.597 10.433)">
          <path id="path690" d="M-.9,0A1.154,1.154,0,0,1,.258,1.154,1.153,1.153,0,0,1-.9,2.307,1.153,1.153,0,0,1-2.049,1.154,1.154,1.154,0,0,1-.9,0" transform="translate(2.049)" fill="#fff"/>
        </g>
        <g id="g692" transform="translate(3.597 14.015)">
          <path id="path694" d="M-.9,0A1.154,1.154,0,0,1,.258,1.154,1.154,1.154,0,0,1-.9,2.307,1.154,1.154,0,0,1-2.049,1.154,1.154,1.154,0,0,1-.9,0" transform="translate(2.049)" fill="#fff"/>
        </g>
        <g id="g696" transform="translate(3.597 17.597)">
          <path id="path698" d="M-.9,0A1.154,1.154,0,0,1,.258,1.154,1.154,1.154,0,0,1-.9,2.307,1.154,1.154,0,0,1-2.049,1.154,1.154,1.154,0,0,1-.9,0" transform="translate(2.049)" fill="#fff"/>
        </g>
        <g id="g700" transform="translate(3.597 21.179)">
          <path id="path702" d="M-.9,0A1.154,1.154,0,0,1,.258,1.154,1.153,1.153,0,0,1-.9,2.307,1.153,1.153,0,0,1-2.049,1.154,1.154,1.154,0,0,1-.9,0" transform="translate(2.049)" fill="#fff"/>
        </g>
        <g id="g704" transform="translate(3.597 24.761)">
          <path id="path706" d="M-.9,0A1.154,1.154,0,0,1,.258,1.154,1.154,1.154,0,0,1-.9,2.307,1.154,1.154,0,0,1-2.049,1.154,1.154,1.154,0,0,1-.9,0" transform="translate(2.049)" fill="#fff"/>
        </g>
        <g id="g708" transform="translate(3.597 28.343)">
          <path id="path710" d="M-.9,0A1.154,1.154,0,0,1,.258,1.154,1.153,1.153,0,0,1-.9,2.307,1.153,1.153,0,0,1-2.049,1.154,1.154,1.154,0,0,1-.9,0" transform="translate(2.049)" fill="#fff"/>
        </g>
        <g id="g712" transform="translate(3.597 31.6)">
          <path id="path714" d="M-.9,0A1.154,1.154,0,0,1,.258,1.154,1.153,1.153,0,0,1-.9,2.307,1.153,1.153,0,0,1-2.049,1.154,1.154,1.154,0,0,1-.9,0" transform="translate(2.049)" fill="#fff"/>
        </g>
        <g id="g716" transform="translate(-0.292 6.851)">
          <path id="path718" d="M-.9,0A1.154,1.154,0,0,1,.258,1.154,1.154,1.154,0,0,1-.9,2.307,1.154,1.154,0,0,1-2.049,1.154,1.154,1.154,0,0,1-.9,0" transform="translate(2.049)" fill="#fff"/>
        </g>
        <g id="g720" transform="translate(-0.292 10.433)">
          <path id="path722" d="M-.9,0A1.154,1.154,0,0,1,.258,1.154,1.153,1.153,0,0,1-.9,2.307,1.153,1.153,0,0,1-2.049,1.154,1.154,1.154,0,0,1-.9,0" transform="translate(2.049)" fill="#fff"/>
        </g>
        <g id="g724" transform="translate(-0.292 14.015)">
          <path id="path726" d="M-.9,0A1.154,1.154,0,0,1,.258,1.154,1.154,1.154,0,0,1-.9,2.307,1.154,1.154,0,0,1-2.049,1.154,1.154,1.154,0,0,1-.9,0" transform="translate(2.049)" fill="#fff"/>
        </g>
        <g id="g728" transform="translate(-0.292 17.597)">
          <path id="path730" d="M-.9,0A1.154,1.154,0,0,1,.258,1.154,1.154,1.154,0,0,1-.9,2.307,1.154,1.154,0,0,1-2.049,1.154,1.154,1.154,0,0,1-.9,0" transform="translate(2.049)" fill="#fff"/>
        </g>
        <g id="g732" transform="translate(-0.292 21.179)">
          <path id="path734" d="M-.9,0A1.154,1.154,0,0,1,.258,1.154,1.153,1.153,0,0,1-.9,2.307,1.153,1.153,0,0,1-2.049,1.154,1.154,1.154,0,0,1-.9,0" transform="translate(2.049)" fill="#fff"/>
        </g>
        <g id="g736" transform="translate(-0.292 24.761)">
          <path id="path738" d="M-.9,0A1.154,1.154,0,0,1,.258,1.154,1.154,1.154,0,0,1-.9,2.307,1.154,1.154,0,0,1-2.049,1.154,1.154,1.154,0,0,1-.9,0" transform="translate(2.049)" fill="#fff"/>
        </g>
        <g id="g740" transform="translate(-0.292 28.343)">
          <path id="path742" d="M-.9,0A1.154,1.154,0,0,1,.258,1.154,1.153,1.153,0,0,1-.9,2.307,1.153,1.153,0,0,1-2.049,1.154,1.154,1.154,0,0,1-.9,0" transform="translate(2.049)" fill="#fff"/>
        </g>
        <g id="g744" transform="translate(-0.292 31.6)">
          <path id="path746" d="M-.9,0A1.154,1.154,0,0,1,.258,1.154,1.153,1.153,0,0,1-.9,2.307,1.153,1.153,0,0,1-2.049,1.154,1.154,1.154,0,0,1-.9,0" transform="translate(2.049)" fill="#fff"/>
        </g>
        <g id="g748" transform="translate(-4.181 6.851)">
          <path id="path750" d="M-.9,0A1.154,1.154,0,0,1,.258,1.154,1.154,1.154,0,0,1-.9,2.307,1.154,1.154,0,0,1-2.049,1.154,1.154,1.154,0,0,1-.9,0" transform="translate(2.049)" fill="#fff"/>
        </g>
        <g id="g752" transform="translate(-4.181 10.433)">
          <path id="path754" d="M-.9,0A1.154,1.154,0,0,1,.258,1.154,1.153,1.153,0,0,1-.9,2.307,1.153,1.153,0,0,1-2.049,1.154,1.154,1.154,0,0,1-.9,0" transform="translate(2.049)" fill="#fff"/>
        </g>
        <g id="g756" transform="translate(-4.181 14.015)">
          <path id="path758" d="M-.9,0A1.154,1.154,0,0,1,.258,1.154,1.154,1.154,0,0,1-.9,2.307,1.154,1.154,0,0,1-2.049,1.154,1.154,1.154,0,0,1-.9,0" transform="translate(2.049)" fill="#fff"/>
        </g>
        <g id="g760" transform="translate(-4.181 17.597)">
          <path id="path762" d="M-.9,0A1.154,1.154,0,0,1,.258,1.154,1.154,1.154,0,0,1-.9,2.307,1.154,1.154,0,0,1-2.049,1.154,1.154,1.154,0,0,1-.9,0" transform="translate(2.049)" fill="#fff"/>
        </g>
        <g id="g764" transform="translate(-4.181 21.179)">
          <path id="path766" d="M-.9,0A1.154,1.154,0,0,1,.258,1.154,1.153,1.153,0,0,1-.9,2.307,1.153,1.153,0,0,1-2.049,1.154,1.154,1.154,0,0,1-.9,0" transform="translate(2.049)" fill="#fff"/>
        </g>
        <g id="g768" transform="translate(-4.181 24.761)">
          <path id="path770" d="M-.9,0A1.154,1.154,0,0,1,.258,1.154,1.154,1.154,0,0,1-.9,2.307,1.154,1.154,0,0,1-2.049,1.154,1.154,1.154,0,0,1-.9,0" transform="translate(2.049)" fill="#fff"/>
        </g>
        <g id="g772" transform="translate(-4.181 28.343)">
          <path id="path774" d="M-.9,0A1.154,1.154,0,0,1,.258,1.154,1.153,1.153,0,0,1-.9,2.307,1.153,1.153,0,0,1-2.049,1.154,1.154,1.154,0,0,1-.9,0" transform="translate(2.049)" fill="#fff"/>
        </g>
        <g id="g776" transform="translate(-4.181 31.6)">
          <path id="path778" d="M-.9,0A1.154,1.154,0,0,1,.258,1.154,1.153,1.153,0,0,1-.9,2.307,1.153,1.153,0,0,1-2.049,1.154,1.154,1.154,0,0,1-.9,0" transform="translate(2.049)" fill="#fff"/>
        </g>
        <g id="g780" transform="translate(-11.959 28.343)">
          <path id="path782" d="M-.9-1.791A1.154,1.154,0,0,1-2.049-2.944,1.153,1.153,0,0,1-.9-4.1,1.153,1.153,0,0,1,.258-2.944,1.154,1.154,0,0,1-.9-1.791" transform="translate(2.049 4.097)" fill="#fff"/>
        </g>
        <g id="g784" transform="translate(-11.959 24.761)">
          <path id="path786" d="M-.9-1.791A1.154,1.154,0,0,1-2.049-2.945,1.154,1.154,0,0,1-.9-4.1,1.154,1.154,0,0,1,.258-2.945,1.154,1.154,0,0,1-.9-1.791" transform="translate(2.049 4.099)" fill="#fff"/>
        </g>
        <g id="g788" transform="translate(-11.959 21.179)">
          <path id="path790" d="M-.9-1.791A1.154,1.154,0,0,1-2.049-2.944,1.153,1.153,0,0,1-.9-4.1,1.153,1.153,0,0,1,.258-2.944,1.154,1.154,0,0,1-.9-1.791" transform="translate(2.049 4.097)" fill="#fff"/>
        </g>
        <g id="g792" transform="translate(-11.959 17.597)">
          <path id="path794" d="M-.9-1.791A1.154,1.154,0,0,1-2.049-2.945,1.154,1.154,0,0,1-.9-4.1,1.154,1.154,0,0,1,.258-2.945,1.154,1.154,0,0,1-.9-1.791" transform="translate(2.049 4.099)" fill="#fff"/>
        </g>
        <g id="g796" transform="translate(-11.959 14.015)">
          <path id="path798" d="M-.9-1.791A1.154,1.154,0,0,1-2.049-2.945,1.154,1.154,0,0,1-.9-4.1,1.154,1.154,0,0,1,.258-2.945,1.154,1.154,0,0,1-.9-1.791" transform="translate(2.049 4.099)" fill="#fff"/>
        </g>
        <g id="g800" transform="translate(-11.959 10.433)">
          <path id="path802" d="M-.9-1.791A1.154,1.154,0,0,1-2.049-2.944,1.153,1.153,0,0,1-.9-4.1,1.153,1.153,0,0,1,.258-2.944,1.154,1.154,0,0,1-.9-1.791" transform="translate(2.049 4.097)" fill="#fff"/>
        </g>
        <g id="g804" transform="translate(-8.07 31.6)">
          <path id="path806" d="M-.9-1.791A1.154,1.154,0,0,1-2.049-2.944,1.153,1.153,0,0,1-.9-4.1,1.153,1.153,0,0,1,.258-2.944,1.154,1.154,0,0,1-.9-1.791" transform="translate(2.049 4.097)" fill="#fff"/>
        </g>
        <g id="g808" transform="translate(-8.07 28.343)">
          <path id="path810" d="M-.9-1.791A1.154,1.154,0,0,1-2.049-2.944,1.153,1.153,0,0,1-.9-4.1,1.153,1.153,0,0,1,.258-2.944,1.154,1.154,0,0,1-.9-1.791" transform="translate(2.049 4.097)" fill="#fff"/>
        </g>
        <g id="g812" transform="translate(-8.07 24.761)">
          <path id="path814" d="M-.9-1.791A1.154,1.154,0,0,1-2.049-2.945,1.154,1.154,0,0,1-.9-4.1,1.154,1.154,0,0,1,.258-2.945,1.154,1.154,0,0,1-.9-1.791" transform="translate(2.049 4.099)" fill="#fff"/>
        </g>
        <g id="g816" transform="translate(-8.07 21.179)">
          <path id="path818" d="M-.9-1.791A1.154,1.154,0,0,1-2.049-2.944,1.153,1.153,0,0,1-.9-4.1,1.153,1.153,0,0,1,.258-2.944,1.154,1.154,0,0,1-.9-1.791" transform="translate(2.049 4.097)" fill="#fff"/>
        </g>
        <g id="g820" transform="translate(-8.07 17.597)">
          <path id="path822" d="M-.9-1.791A1.154,1.154,0,0,1-2.049-2.945,1.154,1.154,0,0,1-.9-4.1,1.154,1.154,0,0,1,.258-2.945,1.154,1.154,0,0,1-.9-1.791" transform="translate(2.049 4.099)" fill="#fff"/>
        </g>
        <g id="g824" transform="translate(-8.07 14.015)">
          <path id="path826" d="M-.9-1.791A1.154,1.154,0,0,1-2.049-2.945,1.154,1.154,0,0,1-.9-4.1,1.154,1.154,0,0,1,.258-2.945,1.154,1.154,0,0,1-.9-1.791" transform="translate(2.049 4.099)" fill="#fff"/>
        </g>
        <g id="g828" transform="translate(-8.07 10.433)">
          <path id="path830" d="M-.9-1.791A1.154,1.154,0,0,1-2.049-2.944,1.153,1.153,0,0,1-.9-4.1,1.153,1.153,0,0,1,.258-2.944,1.154,1.154,0,0,1-.9-1.791" transform="translate(2.049 4.097)" fill="#fff"/>
        </g>
        <g id="g832" transform="translate(-8.07 6.85)">
          <path id="path834" d="M-.9-1.791A1.154,1.154,0,0,1-2.049-2.945,1.154,1.154,0,0,1-.9-4.1,1.154,1.154,0,0,1,.258-2.945,1.154,1.154,0,0,1-.9-1.791" transform="translate(2.049 4.099)" fill="#fff"/>
        </g>
        <g id="g836" transform="translate(-4.349 44.844)">
          <path id="path838" d="M-7.815-4.921a4.541,4.541,0,0,1-5.823,0c-2.293-1.873-4.713-4.555-4.166-5.756.444-.982,2.686-.544,4.528.014a8.8,8.8,0,0,0,5.1,0c1.843-.558,4.08-1,4.528-.014.544,1.2-1.877,3.88-4.166,5.756" transform="translate(17.882 11.26)" fill="#fff"/>
        </g>
        <g id="g840" transform="translate(11.376 28.343)">
          <path id="path842" d="M-.9-1.791A1.154,1.154,0,0,1-2.049-2.944,1.153,1.153,0,0,1-.9-4.1,1.153,1.153,0,0,1,.258-2.944,1.154,1.154,0,0,1-.9-1.791" transform="translate(2.049 4.097)" fill="#fff"/>
        </g>
        <g id="g844" transform="translate(11.376 24.761)">
          <path id="path846" d="M-.9-1.791A1.154,1.154,0,0,1-2.049-2.945,1.154,1.154,0,0,1-.9-4.1,1.154,1.154,0,0,1,.258-2.945,1.154,1.154,0,0,1-.9-1.791" transform="translate(2.049 4.099)" fill="#fff"/>
        </g>
        <g id="g848" transform="translate(11.376 21.179)">
          <path id="path850" d="M-.9-1.791A1.154,1.154,0,0,1-2.049-2.944,1.153,1.153,0,0,1-.9-4.1,1.153,1.153,0,0,1,.258-2.944,1.154,1.154,0,0,1-.9-1.791" transform="translate(2.049 4.097)" fill="#fff"/>
        </g>
        <g id="g852" transform="translate(11.376 17.597)">
          <path id="path854" d="M-.9-1.791A1.154,1.154,0,0,1-2.049-2.945,1.154,1.154,0,0,1-.9-4.1,1.154,1.154,0,0,1,.258-2.945,1.154,1.154,0,0,1-.9-1.791" transform="translate(2.049 4.099)" fill="#fff"/>
        </g>
        <g id="g856" transform="translate(11.376 14.015)">
          <path id="path858" d="M-.9-1.791A1.154,1.154,0,0,1-2.049-2.945,1.154,1.154,0,0,1-.9-4.1,1.154,1.154,0,0,1,.258-2.945,1.154,1.154,0,0,1-.9-1.791" transform="translate(2.049 4.099)" fill="#fff"/>
        </g>
        <g id="g860" transform="translate(11.376 10.433)">
          <path id="path862" d="M-.9-1.791A1.154,1.154,0,0,1-2.049-2.944,1.153,1.153,0,0,1-.9-4.1,1.153,1.153,0,0,1,.258-2.944,1.154,1.154,0,0,1-.9-1.791" transform="translate(2.049 4.097)" fill="#fff"/>
        </g>
        <g id="g864" transform="translate(-0.193 65.646)">
          <path id="path866" d="M0-1.239,6.029-.025C6.016-.565,6-1.1,5.991-1.637L.036-2.836C.025-2.314.013-1.78,0-1.239" transform="translate(0 2.836)" fill="#649cdc"/>
        </g>
      </g>
    </g>
    <g id="g868" transform="translate(-2124.468 3889.852)">
      <g id="g870" transform="translate(0 0)">
        <g id="g876">
          <g id="g878">
            <path id="path888" d="M133.532-236.411l5.836,1.175c-.014-.539-.026-1.078-.038-1.612h0l-5.8-1.168Z" transform="translate(-133.532 238.015)" fill="url(#linear-gradient)"/>
          </g>
        </g>
      </g>
    </g>
    <g id="Group_2030" data-name="Group 2030" transform="translate(-2007.763 3877.048)">
      <path id="path12" d="M340.838-245.841H449.455v-14.92H340.838Z" transform="translate(-340.838 260.761)" fill="#a2ca30"/>
      <g id="g22" transform="translate(4.065 1.656)">
        <path id="path24" d="M-5.64-3.188a1.057,1.057,0,0,0,.589-.96,1.129,1.129,0,0,0-.295-.763.948.948,0,0,0-.7-.3h-4.921v2.136h4.921a.858.858,0,0,0,.4-.1Zm1.661-3.163a3.216,3.216,0,0,1,.853,2.2A3.157,3.157,0,0,1-4.833-1.3a2.46,2.46,0,0,1-.838.248h-.093v.017h-5.2V4.3h-1.94V-7.295H-6.06A2.819,2.819,0,0,1-4-6.384Z" transform="translate(12.905 7.295)" fill="#fff"/>
      </g>
      <g id="g26" transform="translate(12.382 1.656)">
        <path id="path28" d="M-8.6-9h-2.173l-.994-2.07-2.375-4.968-2.375,4.968L-17.514-9h-2.174l.995-2.07,4.547-9.522L-9.6-11.07Z" transform="translate(19.688 20.592)" fill="#fff"/>
      </g>
      <g id="g30" transform="translate(24.393 1.655)">
        <path id="path32" d="M-1.493-7.406H2a3.621,3.621,0,0,0,3.493-3.727A3.62,3.62,0,0,0,2-14.859H-1.493ZM2-16.929a5.614,5.614,0,0,1,5.433,5.78A5.986,5.986,0,0,1,6.143-7.406c-.093.116-.2.232-.31.348A5.177,5.177,0,0,1,2.015-5.353H-3.417V-16.945Z" transform="translate(3.417 16.945)" fill="#fff"/>
      </g>
      <g id="g34" transform="translate(36.82 1.655)">
        <path id="path36" d="M-1.495-2.43v1.076H5.491V.717H-1.495V2.9A1.036,1.036,0,0,0-.5,3.963H7.431V6.033H-.5A3.032,3.032,0,0,1-3.42,2.9V-2.43A3.032,3.032,0,0,1-.5-5.56H7.431v2.07H-.5a1.036,1.036,0,0,0-.993,1.06" transform="translate(3.42 5.56)" fill="#fff"/>
      </g>
      <g id="g38" transform="translate(49.217 1.672)">
        <path id="path40" d="M-6.953-7.393v2.069h-5.51A3.193,3.193,0,0,1-13.984-5.7a3.573,3.573,0,0,1-1.568-1.689,3.794,3.794,0,0,1-.357-1.624v-7.9h1.94v8.1a1.6,1.6,0,0,0,1.32,1.408Z" transform="translate(15.909 16.916)" fill="#fff"/>
      </g>
      <g id="g42" transform="translate(67.278 1.672)">
        <path id="path44" d="M-6.952-7.393v2.069h-5.51A3.194,3.194,0,0,1-13.983-5.7a3.577,3.577,0,0,1-1.568-1.689,3.8,3.8,0,0,1-.357-1.624v-7.9h1.94v8.1a1.6,1.6,0,0,0,1.32,1.408Z" transform="translate(15.908 16.916)" fill="#fff"/>
      </g>
      <path id="path46" d="M479-257.821h1.94v11.592H479Z" transform="translate(-401.221 259.476)" fill="#fff"/>
      <g id="g48" transform="translate(81.288 1.655)">
        <path id="path50" d="M-8.436,0V2.07h-7.932a1.036,1.036,0,0,0-.994,1.06V4.206h6.986v2.07h-7v5.316H-19.3V3.13A3.032,3.032,0,0,1-16.383,0Z" transform="translate(19.303)" fill="#fff"/>
      </g>
      <g id="g52" transform="translate(93.701 1.655)">
        <path id="path54" d="M-1.495-2.43v1.076H5.49V.717H-1.495V2.9A1.036,1.036,0,0,0-.5,3.963H7.43V6.033H-.5A3.032,3.032,0,0,1-3.42,2.9V-2.43A3.032,3.032,0,0,1-.5-5.56H7.43v2.07H-.5a1.035,1.035,0,0,0-.993,1.06" transform="translate(3.42 5.56)" fill="#fff"/>
      </g>
    </g>
  </g>
</svg>
