<svg xmlns="http://www.w3.org/2000/svg" width="236.844" height="261.458" viewBox="0 0 236.844 261.458">
  <g id="Grand_slam-bro" data-name="Grand slam-bro" transform="translate(-102.699 -139.249)">
    <g id="freepik--Character--inject-1" transform="translate(102.699 139.249)">
      <ellipse id="Ellipse_184" data-name="Ellipse 184" cx="88.347" cy="4.941" rx="88.347" ry="4.941" transform="translate(60.151 251.576)" fill="#263238"/>
      <path id="Path_1600" data-name="Path 1600" d="M209.923,201.89s-7.518,0-11.547,1.06S160,215.833,159.144,215.833s-9.129-3.181-10.2-3.181-6.171,2.683-5.641,5.09,5.906,6.182,7.518,7.253,10.465-3.181,10.465-3.181,26.572-1.877,32.743-3.181,13.689-2.121,13.689-2.121Z" transform="translate(-98.176 -147.928)" fill="#fff" stroke="#263238" stroke-linecap="round" stroke-linejoin="round" stroke-width="1"/>
      <path id="Path_1601" data-name="Path 1601" d="M159.779,227.556,141.234,204.95l-4.475-15.322a1.06,1.06,0,0,0-.371-.52,23.691,23.691,0,0,0-.467-3.52,52.264,52.264,0,0,0-7.772-17.411c-8.387-12.724-19.171-19.818-24.536-16.265s-3.011,16.265,5.376,28.947a52.307,52.307,0,0,0,12.989,13.954c.647.445,1.283.838,1.909,1.2l15.205,11.409L157.3,229.6a1.612,1.612,0,0,0,1.241.583,1.643,1.643,0,0,0,1.06-.361,1.612,1.612,0,0,0,.18-2.269Zm-27.293-34.387,1.431-.286a5.789,5.789,0,0,1-.6,1.421ZM103.02,161.232c-.074-.541-.117-1.06-.138-1.569l.912-.18,1.156,1.58-1.792.361Zm.223,1.421c-.074-.4-.138-.785-.191-1.166.085.382.085.763.191,1.177Zm23.688,22.924L125.774,184l1.792-.371,1.156,1.58Zm2.312.35,1.156,1.58-1.792.361-1.156-1.58Zm-4-2.651L124.1,181.75l1.792-.361,1.156,1.58Zm-11.091-18.026,1.156,1.58-1.792.361-1.166-1.58Zm-2.322-.35-1.145-1.58,1.792-.361,1.145,1.58ZM121.9,178.685l-1.166-1.58,1.792-.371,1.166,1.58Zm2.312.35,1.156,1.58-1.8.361-1.145-1.58Zm-3.987-2.587-1.166-1.58,1.792-.361,1.166,1.58Zm-1.686-2.3-1.156-1.58,1.792-.361,1.156,1.58Zm-1.622-2.333-1.156-1.58,1.792-.361,1.156,1.58Zm-1.675-2.29-1.166-1.58,1.813-.361,1.145,1.58Zm-.869.17-1.792.371-1.166-1.58,1.792-.371Zm.52.721,1.156,1.58-1.792.35-1.156-1.58Zm1.675,2.29,1.156,1.569-1.792.371-1.156-1.58Zm1.675,2.29,1.166,1.58-1.792.371-1.166-1.58Zm1.675,2.3,1.166,1.58-1.8.35-1.156-1.58Zm1.686,2.29,1.145,1.569-1.792.371-1.145-1.58Zm1.675,2.29,1.145,1.58-1.792.371-1.145-1.58Zm1.856-3,1.792-.371,1.156,1.58-1.792.371Zm-.52-.721-1.166-1.58,1.8-.361,1.156,1.58Zm-1.675-2.3-1.166-1.58,1.792-.35,1.166,1.58Zm-1.781-2.28-1.06-1.58,1.8-.371,1.156,1.58Zm-1.675-2.3-1.156-1.58,1.8-.36,1.145,1.58Zm-1.633-2.248-1.156-1.569,1.8-.371,1.145,1.58Zm-1.675-2.29-1.156-1.58,1.792-.371,1.156,1.58Zm-1.686-2.3-1.145-1.58,1.792-.35,1.156,1.569Zm-1.675-2.29-1.145-1.6,1.792-.371,1.145,1.58Zm-.869.18-1.792.361-1.145-1.58,1.792-.36Zm-3.51-1.983-1.06-1.569,1.8-.371,1.145,1.58Zm.806,2.471-1.792.371-1.135-1.58,1.792-.371Zm.53.721,1.145,1.58-1.792.35-1.156-1.58Zm1.665,2.29,1.166,1.58-1.792.361-1.166-1.58Zm.18,4.411-1.792.361-1.166-1.58,1.792-.361Zm.52.721,1.156,1.569-1.792.361-1.156-1.569Zm1.675,2.28,1.156,1.58-1.8.371-1.145-1.58Zm1.675,2.3,1.166,1.58-1.813.361-1.1-1.58Zm1.675,2.3,1.156,1.569-1.792.361-1.156-1.58Zm1.686,2.28L120,181.7l-1.792.371-1.156-1.58Zm1.675,2.3,1.145,1.58-1.792.361-1.1-1.548Zm1.7,2.3,1.156,1.569-1.8.361-1.145-1.58Zm.869-.191,1.792-.361,1.156,1.58-1.792.361Zm3.467,1.94,1.156,1.569-1.792.371-1.156-1.58Zm1.686,2.29,1.145,1.58-1.792.361-1.135-1.527Zm1.675,2.29,1.145,1.58-1.792.36-1.145-1.58Zm.869-.17,1.792-.371,1.145,1.58-1.792.371Zm-.53-.721-1.145-1.58,1.792-.35,1.145,1.58Zm-.17-4.4,1.8-.371,1.156,1.58-1.8.371Zm-.52-.721-1.156-1.58,1.792-.361,1.166,1.58Zm-1.675-2.3-1.156-1.58,1.792-.35,1.166,1.58Zm-.17-4.4,1.792-.361,1.156,1.58-1.792.361Zm-.52-.721-1.166-1.569,1.8-.371,1.156,1.58Zm-1.675-2.29-1.166-1.58,1.8-.361,1.156,1.58Zm-1.686-2.29-1.145-1.58,1.792-.361,1.156,1.58Zm-1.622-2.3-1.145-1.569,1.792-.371,1.145,1.58Zm-.159-4.411,1.792-.35,1.145,1.58-1.792.35Zm.276,1.76-1.792.361-1.177-1.537,1.792-.361Zm-3.467-1.93-1.156-1.58,1.792-.361,1.124,1.633Zm-1.686-2.3-1.145-1.569,1.792-.371,1.156,1.58Zm-1.707-2.248-1.145-1.58,1.792-.361,1.145,1.569Zm-1.675-2.3-1.124-1.612,1.792-.361,1.145,1.58Zm-.869.17-1.792.371-1.156-1.58,1.8-.371Zm-3.435-1.962-1.156-1.58,1.792-.35,1.156,1.58Zm-.869.18-1.792.361-1.156-1.58,1.792-.361Zm-.986,2.831-1.792.36-1.156-1.58,1.792-.361Zm-2.121,1.251,1.145,1.58-1.792.361-1.156-1.58Zm1.665,2.3,1.156,1.569-1.792.371-1.156-1.58Zm1.675,2.28,1.166,1.58-1.8.371-1.156-1.58Zm.18,4.411-1.792.371-1.166-1.58,1.792-.361Zm-2.661.541h-.191l-.318-.732Zm.064.594-.1-.2Zm.456.127,1.145,1.58-.689.138c-.286-.551-.562-1.06-.816-1.644Zm.859-.17,1.8-.371,1.156,1.58-1.8.371Zm3.478,1.919,1.145,1.58-1.792.361-1.145-1.58Zm1.675,2.3,1.156,1.569-1.8.371-1.188-1.569Zm1.675,2.29,1.156,1.58-1.792.35-1.156-1.559Zm1.686,2.29,1.145,1.58-1.792.361-1.156-1.58Zm.159,4.411-1.368.276c-.424-.5-.838-1.06-1.251-1.559l1.474-.3Zm-.276-1.75,1.792-.361,1.145,1.569-1.792.371Zm3.467,1.93,1.156,1.58-1.8.35-1.145-1.569Zm1.675,2.29,1.156,1.58-1.792.361-1.156-1.58Zm.869-.17,1.792-.371,1.156,1.58-1.792.361Zm3.478,1.93,1.145,1.58L125,191.24l-1.156-1.58Zm1.675,2.3,1.145,1.559-1.792.371-1.145-1.58Zm-.541,3.425c-.339-.148-.679-.307-1.06-.488l.583-.117Zm.424-.774L129,193.88l1.453,2a3.914,3.914,0,0,0,.9-.138l-1.484-2.036,1.792-.361,1.166,1.59a3.03,3.03,0,0,1-.435.392,5.047,5.047,0,0,1-4.241.191Zm.594,1.166-.308-.1Zm6.457-4.061-.742-1.06.806-.159q-.053.668-.106,1.219Zm0,0v0Zm-.18,1.06v.1Zm.233-3.107-1.325.254-1.219-1.527,1.792-.35.6.816a8.258,8.258,0,0,1,.106.859Zm-.445-3.34c.053.265.085.509.127.763h0l-1.166-1.58.816-.17a5.759,5.759,0,0,0,.18,1.007Zm-.424-1.76-1.135.233-1.166-1.569,1.792-.371c.138.626.318,1.2.467,1.76Zm-2.82-2.057-1.156-1.58,1.792-.361,1.166,1.58Zm1.124-2.863h-.138l-1.156-1.569.583-.127c.488,1.06.912,2.121,1.294,3.181-.223-.435-.414-.923-.626-1.431Zm-1.813-2.258-1.156-1.58,1.06-.223q.435.827.827,1.654Zm-.456-2.545-1.219.244-1.156-1.58,1.474-.3c.276.594.573,1.145.859,1.686Zm-2.216-3.828q.467.732.891,1.463h0c.106.18.212.35.307.53l-.307-.53-1.569.318-1.177-1.516,1.739-.361Zm-.859-1.347c.159.233.307.477.456.71-.148-.233-.3-.477-.456-.71s-.414-.6-.615-.9a9.884,9.884,0,0,0,.573.954Zm.286.467-1.792.371-1.145-1.58,1.792-.361Zm-4.559-6.055h0l.085.1h0c.233.265.456.551.689.838-.233-.276-.456-.562-.679-.838l1.06,1.484-1.792.361-1.156-1.569,1.781-.371-.3-.35Zm-1.972-2.227h0c.435.467.869.944,1.3,1.453l.074.074-1.707.35-1.156-1.58,1.484-.3-.615-.657Zm-2.121-2.184c.467.435.944.9,1.421,1.389l.106.106-1.368.265-1.2-1.59.976-.191Zm-2.481-2.121h0l1.622,1.357h.064l-.774.159-1.145-1.569Zm-2.937-2.036h0c.138.085.276.159.424.265h0c.361.223.721.467,1.06.721-.371-.254-.732-.5-1.06-.71l.933,1.262-1.792.361-1.156-1.569,1.59-.318c-.361-.212-.7-.414-1.06-.583a5.5,5.5,0,0,1,1.007.5Zm-2.121-.392-.71-.965a14.64,14.64,0,0,1,1.718.753Zm-2.057-1.431,1.124,1.527-1.8.361-1.442-2.025a3.775,3.775,0,0,1,.615-.064A6.806,6.806,0,0,1,108.438,153.333Zm-3.669.371a2.893,2.893,0,0,1,.657-.318L106.9,155.4l-1.8.361-1.06-1.4a3.182,3.182,0,0,1,.753-.657Zm-1.177,1.357.636.87-1.06.212a6.193,6.193,0,0,1,.445-1.082Zm-.626,1.962h0l1.781-.35,1.156,1.58-1.792.361-1.145-1.569a.817.817,0,0,0,0,.159,1.351,1.351,0,0,0,.021-.18Zm-.117,1.2.4.551-.414.085c.021-.212.021-.435.032-.636Zm.435,4.771.657.891-.435.1c.064.254.117.488.18.753-.138-.6-.265-1.177-.382-1.739Zm1.177,1.612,1.156,1.58-1.41.276c-.191-.573-.371-1.156-.509-1.707Zm0,2.63,1.675-.329,1.166,1.58-1.8.35-.9-1.23a2.96,2.96,0,0,0-.117-.371Zm.976,2.555v-.138a.531.531,0,0,1,.021.138Zm1.866,3.976c0,.106.117.212.17.329Zm.382.721.827-.159,1.145,1.569-1.06.223c-.318-.551-.6-1.092-.891-1.633Zm1.325,2.365,1.177-.244,1.145,1.58-1.336.276c-.318-.541-.647-1.071-.965-1.612Zm1.75,2.82-.5-.785.191.3,1.41-.276,1.156,1.58-1.484.3c-.244-.371-.5-.732-.753-1.156Zm1.262,1.834,1.516-.3,1.156,1.559-1.5.318c-.382-.52-.763-1.039-1.156-1.58Zm3.054,3.934Zm.53.6,1.294-.254,1.145,1.58-1.06.212c-.445-.53-.9-1.018-1.357-1.537Zm3.573,3.722c-.52-.477-1.06-.975-1.537-1.5l.933-.2,1.156,1.58Zm.732.679.339-.074.7.965Zm1.251-.212,1.8-.361,1.145,1.569-1.792.371Zm3.541,3.722h0l-.392-.286h0a.848.848,0,0,0-.339-.138l-.668-.4.254.17-.308-.191-.18-.138.18.127h0l-.424-.583,1.792-.361,1.145,1.58-1.06.212h0Zm5.556,4.125a5.609,5.609,0,0,0,5.577-3.976l2.418,8.249a1.654,1.654,0,0,0-.944.361,1.751,1.751,0,0,0-.361.435l-6.754-5.068Z" transform="translate(-100.741 -150.998)" fill="#263238"/>
      <path id="Path_1602" data-name="Path 1602" d="M144.931,215.57s3.764-.541,5.376.265,6.171,4.835,4.825,5.641-2.683,2.948-4.294,2.683-5.63-3.764-6.977-5.365" transform="translate(-98.14 -147.113)" fill="#fff" stroke="#263238" stroke-linecap="round" stroke-linejoin="round" stroke-width="1"/>
      <path id="Path_1603" data-name="Path 1603" d="M153.81,214.8a24.167,24.167,0,0,1-6.182,1.336c-2.407,0-4.825,2.121-3.754,2.693s5.1,0,5.1,0,4.559,3.754,8.589.265" transform="translate(-98.155 -147.149)" fill="#fff" stroke="#263238" stroke-linecap="round" stroke-linejoin="round" stroke-width="1"/>
      <path id="Path_1604" data-name="Path 1604" d="M303,210.88s10.709,8.483,11.748,10.126c3.054,4.793-1.325,20.263-2.916,27.293-1.442,6.362-3.944,14.664-3.584,15.205s6.15,4.888,6.51,7.231.721,5.068,0,5.609-1.06-1.442-1.272-2.534a8.9,8.9,0,0,0-1.06-2.524s-.721,5.238-.721,5.959-1.633,2.895-2.174,2.895-.361-2.524-.361-3.075-.18-4.878-.18-4.878a65.186,65.186,0,0,1-1.453,6.51c-.392.721-1.983,3.616-2.884,2.354s.18-2.714.361-3.987.467-5.047.467-5.047-1.887,3.987-2.248,4.888-2.322,3.054-2.927,2.513.074-2.205.891-4.04a13.072,13.072,0,0,0,.212-3.87s-2-4.931-3.086-4.931-5.429,2.121-7.062,2.895-3.616.18-2.524-.541a50.015,50.015,0,0,0,4.517-3.8,15.9,15.9,0,0,1,3.435-2.714c.9-.361,5.408-1.93,5.408-1.93s0-18.683-.17-23.03c-.106-2.693-.1-5.673-.064-7.55a3.722,3.722,0,0,0-1.484-3l-2.99-2.28S292.863,213.594,303,210.88Z" transform="translate(-89.419 -147.386)" fill="#fff" stroke="#263238" stroke-linecap="round" stroke-linejoin="round" stroke-width="1"/>
      <path id="Path_1605" data-name="Path 1605" d="M304.5,268.7a8.483,8.483,0,0,0-.212-2.874" transform="translate(-88.461 -144.071)" fill="none" stroke="#263238" stroke-linecap="round" stroke-linejoin="round" stroke-width="1"/>
      <path id="Path_1606" data-name="Path 1606" d="M307.8,268.873a26.946,26.946,0,0,0-.074-3.043" transform="translate(-88.254 -144.071)" fill="none" stroke="#263238" stroke-linecap="round" stroke-linejoin="round" stroke-width="1"/>
      <path id="Path_1607" data-name="Path 1607" d="M311.028,267.979a3.785,3.785,0,0,0-.488-2.269" transform="translate(-88.084 -144.078)" fill="none" stroke="#263238" stroke-linecap="round" stroke-linejoin="round" stroke-width="1"/>
      <path id="Path_1608" data-name="Path 1608" d="M204,357.84s-7.952-1.993-10.667.721.9,7.242,0,10.5-1.633,9.405-.732,11.748,4.347,9.766,6.882,8.324,3.075-8.324,3.075-12.12.9-10.306,1.983-11.208S206.716,361.1,204,357.84Z" transform="translate(-95.224 -138.562)" fill="#393e84" stroke="#263238" stroke-linecap="round" stroke-linejoin="round" stroke-width="1"/>
      <path id="Path_1609" data-name="Path 1609" d="M241.156,311.562s-5.609,17.718-5.97,19.892a12.555,12.555,0,0,1-.9,3.255s-12.12,5.789-15.555,9.946-8.483,10.487-11.038,12.12a29.3,29.3,0,0,0-7.051,5.97c-1.442,1.983-.583,11.123,1.633,9.543,4.157-2.895,22.426-15.9,33.453-21.7C242.555,347,253.275,340.456,255.8,336.8s6.51-20.263,7.963-24.96S244.411,308.847,241.156,311.562Z" transform="translate(-94.757 -141.472)" fill="#fff" stroke="#263238" stroke-linecap="round" stroke-linejoin="round" stroke-width="1"/>
      <path id="Path_1610" data-name="Path 1610" d="M213.545,348.49a36.475,36.475,0,0,1-5.853,5.9,29.3,29.3,0,0,0-7.051,5.97c-1.442,1.983-.583,11.123,1.633,9.543,2.386-1.665,9.458-6.691,17.135-11.759C213.227,358.425,213.174,351.83,213.545,348.49Z" transform="translate(-94.757 -139.084)" fill="#263238" stroke="#263238" stroke-linecap="round" stroke-linejoin="round" stroke-width="1"/>
      <path id="Path_1611" data-name="Path 1611" d="M227.644,263.413A88.773,88.773,0,0,0,226,278.608c0,7.231,11.748,26.222,12.469,27.123s-1.06,8.864-1.06,8.864,1.06,2.895,8.483,3.976,17.358-.721,17.358-.721,7.963-15.735,11.579-25.681,4.878-30.569,4.878-30.569a59.494,59.494,0,0,1-20.252,3.255c-12.12,0-30.018-2.354-30.018-2.354S227.824,262.141,227.644,263.413Z" transform="translate(-93.185 -144.326)" fill="#263238" stroke="#263238" stroke-linecap="round" stroke-linejoin="round" stroke-width="1"/>
      <path id="Path_1612" data-name="Path 1612" d="M239.893,189.3s-13.424-2.693-19.871.265-7.507,4.241-9.119,6.436a69.063,69.063,0,0,1-6.447,6.447,88.217,88.217,0,0,0-1.877,9.66,21.418,21.418,0,0,0,1.347,7.518l14.76,6.436s10.2,23.624,10.731,28.449,1.347,5.906-.265,6.977-3.488,4.57-2.418,6.447,12.353,2.683,18.248,3.488,25.236,1.336,30.06.265,7.518-3.488,7.518-6.171a47.145,47.145,0,0,0-1.06-7.253c-.276-1.877-1.877-33.814-1.877-33.814s13.19,4.962,15.9,6.574a60.159,60.159,0,0,0,7.783,3.489s-1.336-8.589,1.347-14.484,4.559-6.988,4.559-6.988-19.51-16.414-20.857-16.679-13.275-5.991-19.446-7.062S239.893,189.3,239.893,189.3Z" transform="translate(-94.598 -148.755)" fill="#393e84" stroke="#263238" stroke-linecap="round" stroke-linejoin="round" stroke-width="1"/>
      <path id="Path_1613" data-name="Path 1613" d="M218.011,225.021a168.456,168.456,0,0,1-4.241-19.531" transform="translate(-93.922 -147.711)" fill="none" stroke="#263238" stroke-linecap="round" stroke-linejoin="round" stroke-width="1"/>
      <path id="Path_1614" data-name="Path 1614" d="M210,204.29s4.347,14.473,7.963,19.171" transform="translate(-94.15 -147.783)" fill="none" stroke="#263238" stroke-linecap="round" stroke-linejoin="round" stroke-width="1"/>
      <path id="Path_1615" data-name="Path 1615" d="M275.874,223.369a33.029,33.029,0,0,1-11.314-17.2" transform="translate(-90.858 -147.67)" fill="none" stroke="#263238" stroke-linecap="round" stroke-linejoin="round" stroke-width="1"/>
      <path id="Path_1616" data-name="Path 1616" d="M275.309,222.432s-5.789-.361-11.939-7.592" transform="translate(-90.93 -147.147)" fill="none" stroke="#263238" stroke-linecap="round" stroke-linejoin="round" stroke-width="1"/>
      <path id="Path_1617" data-name="Path 1617" d="M220.9,231.75s15.195,24.96,24.6,30.93" transform="translate(-93.492 -146.127)" fill="none" stroke="#263238" stroke-linecap="round" stroke-linejoin="round" stroke-width="1"/>
      <path id="Path_1618" data-name="Path 1618" d="M226.87,246.25s6.871,11.759,10.306,14.474" transform="translate(-93.132 -145.252)" fill="none" stroke="#263238" stroke-linecap="round" stroke-linejoin="round" stroke-width="1"/>
      <path id="Path_1619" data-name="Path 1619" d="M236.685,187.753a9.543,9.543,0,0,0-7.242,4.156c-2.46,4.008-3.542,23.264-3.382,24.038s8.928-6.362,15.9-6.161,14.018,10.169,14.018,10.169a32.213,32.213,0,0,0,3.085-19.256C257.489,189.29,245.772,185.134,236.685,187.753Z" transform="translate(-93.182 -148.827)" fill="#263238" stroke="#263238" stroke-linecap="round" stroke-linejoin="round" stroke-width="1"/>
      <path id="Path_1620" data-name="Path 1620" d="M254.716,165.364a4.962,4.962,0,0,0,5.355-2.683c1.877-3.488.541-5.365-1.877-5.365h-4.241s.922-5.386-3.361-5.386-12.438,4.347-12.438,4.347-13.265,1.845-13.572,11.133c-.435,13.01,7.645,15.65,7.645,15.65s2.121,2.418,4.029.541a9.543,9.543,0,0,0,2.407-4.029s3.754-1.06,3.754-3.754-4.241-5.09-2.407-6.7S254.716,165.364,254.716,165.364Z" transform="translate(-93.271 -150.942)" fill="#263238" stroke="#263238" stroke-linecap="round" stroke-linejoin="round" stroke-width="1"/>
      <path id="Path_1621" data-name="Path 1621" d="M243.671,157.946s-.615-3.1,1.548-3.1,3.255,3.913,2.015,7.009-9.755,3.828-14.707,6-6.807,7.422-6.807,7.422" transform="translate(-93.201 -150.766)" fill="none" stroke="#fff" stroke-linecap="round" stroke-linejoin="round" stroke-width="0.5"/>
      <path id="Path_1622" data-name="Path 1622" d="M228.34,177.052s1.241-3.4,6.192-5.3" transform="translate(-93.043 -149.746)" fill="none" stroke="#fff" stroke-linecap="round" stroke-linejoin="round" stroke-width="0.5"/>
      <path id="Path_1623" data-name="Path 1623" d="M261.222,297.795s4.157,10.487,5.058,16.276.551,27.855,1.272,36.359,7.231,29.689,7.231,29.689,10.126-5.249,13.784-7.051,6.15-3.075,6.15-.361-2.121,9.766-5.238,11.748-9.045,4.167-9.766,5.789-4.347,6.51-6.882,7.051-4.7-2.524-5.6-4.517-2.354-9.405-2.354-9.405S256.2,364.2,252.04,355.879s-6.51-17.718-6.51-22.786,2.895-13.922,2.534-15.194-8.324-13.021-8.324-13.021,1.06-4.7,8.143-6.691A28.512,28.512,0,0,1,261.222,297.795Z" transform="translate(-92.356 -142.179)" fill="#fff" stroke="#263238" stroke-linecap="round" stroke-linejoin="round" stroke-width="1"/>
      <path id="Path_1624" data-name="Path 1624" d="M287.543,369.583c-3.616,1.8-13.784,7.051-13.784,7.051s-3.86-12.554-5.97-22.214a14.844,14.844,0,0,0-9.946,4.3c-.976.986-1.8,1.887-2.524,2.736,4.05,8.62,8.483,18.429,8.483,18.429s1.442,7.422,2.354,9.405,3.075,5.068,5.6,4.517,6.15-5.418,6.882-7.051,6.691-3.8,9.766-5.789,5.238-9.045,5.238-11.748S291.17,367.759,287.543,369.583Z" transform="translate(-91.416 -138.726)" fill="#263238" stroke="#263238" stroke-linecap="round" stroke-linejoin="round" stroke-width="1"/>
      <path id="Path_1625" data-name="Path 1625" d="M264.53,384.756a26.1,26.1,0,0,0,1.124,3.785c.9,1.993,3.075,5.068,5.6,4.517s6.15-5.418,6.882-7.051,6.691-3.8,9.766-5.789,5.238-9.045,5.238-11.748-2.524-1.453-6.15.361-13.784,7.051-13.784,7.051A19.68,19.68,0,0,0,264.53,384.756Z" transform="translate(-90.86 -137.973)" fill="#393e84" stroke="#263238" stroke-linecap="round" stroke-linejoin="round" stroke-width="1"/>
      <path id="Path_1626" data-name="Path 1626" d="M277.905,386.007c.721-1.622,6.691-3.8,9.766-5.789s5.238-9.045,5.238-11.748c0-1.368-.636-1.728-1.739-1.516-4.167,3.117-16.584,12.671-20.327,18.513-1.993,3.117-2.683,5.376-2.492,6.9a3.3,3.3,0,0,0,2.672.689C273.558,392.518,277.174,387.64,277.905,386.007Z" transform="translate(-90.631 -137.973)" fill="#fff" stroke="#263238" stroke-linecap="round" stroke-linejoin="round" stroke-width="1"/>
      <path id="Path_1627" data-name="Path 1627" d="M247.543,272.345s6.871,6.51,9.766,12.109,6.15,16.467,6.15,16.467-9.766.541-13.784,1.8-9.766,10.126-9.766,10.126-6.362-10.667-9.946-17.718-4.708-14.113-3.8-19.531,2.121-6.15,2.121-6.15" transform="translate(-93.193 -143.852)" fill="#263238" stroke="#263238" stroke-linecap="round" stroke-linejoin="round" stroke-width="1"/>
      <path id="Path_1628" data-name="Path 1628" d="M248,270.47s10.126,8.483,13.021,17.909" transform="translate(-91.857 -143.791)" fill="none" stroke="#fff" stroke-linecap="round" stroke-linejoin="round" stroke-width="1"/>
      <path id="Path_1629" data-name="Path 1629" d="M260.47,279.51s3.8,6.51,4.337,10.487" transform="translate(-91.105 -143.245)" fill="none" stroke="#fff" stroke-linecap="round" stroke-linejoin="round" stroke-width="1"/>
      <path id="Path_1630" data-name="Path 1630" d="M232.7,185.259l2.958,9.66a28.237,28.237,0,0,0-.276,10.731c1.06,5.1,2.958,8.854,5.376,8.854s12.077-9.66,12.883-14.76a53.931,53.931,0,0,0,.8-6.977,21.557,21.557,0,0,1-11-2.948C238.076,186.6,232.7,181.76,232.7,185.259Z" transform="translate(-92.78 -149.005)" fill="#fff" stroke="#263238" stroke-linecap="round" stroke-linejoin="round" stroke-width="1"/>
      <path id="Path_1631" data-name="Path 1631" d="M232.264,181.241s-4.644-2.312-4.644.912a7.539,7.539,0,0,0,3.3,6.054,2.439,2.439,0,0,0,3.181-.53l8.313,7.507c2.672,2.407,7.507,5.09,10.985,2.407s3.181-8.578,3.181-8.578,2.121-9.914,1.06-15.555a25.914,25.914,0,0,0-3.181-8.843s-11-1.347-15.555,2.121-3.488,4.825-1.612,6.436,2.683,2.948,1.877,3.754a15.6,15.6,0,0,1-2.948,1.877S236.3,183.383,232.264,181.241Z" transform="translate(-93.087 -150.192)" fill="#fff" stroke="#263238" stroke-linecap="round" stroke-linejoin="round" stroke-width="1"/>
      <path id="Path_1632" data-name="Path 1632" d="M250.59,175.92s2.121,6.712,1.633,7.2-4.093.816-4.093.816" transform="translate(-91.849 -149.495)" fill="none" stroke="#263238" stroke-linecap="round" stroke-linejoin="round" stroke-width="1"/>
      <path id="Path_1633" data-name="Path 1633" d="M249.83,174.547s1.315-3.107,4.422-3.107" transform="translate(-91.747 -149.765)" fill="none" stroke="#263238" stroke-linecap="round" stroke-linejoin="round" stroke-width="1"/>
      <path id="Path_1634" data-name="Path 1634" d="M247.648,175.792s-5.079-1.633-7.7.657" transform="translate(-92.343 -149.537)" fill="none" stroke="#263238" stroke-linecap="round" stroke-linejoin="round" stroke-width="1"/>
      <line id="Line_200" data-name="Line 200" x2="2.778" transform="translate(155.305 39.679)" fill="none" stroke="#263238" stroke-linecap="round" stroke-linejoin="round" stroke-width="1"/>
      <path id="Path_1635" data-name="Path 1635" d="M245.265,178.37c0,.6-.255,1.06-.573,1.06s-.573-.488-.573-1.06.255-1.06.573-1.06S245.265,177.766,245.265,178.37Z" transform="translate(-92.091 -149.411)" fill="#263238"/>
      <ellipse id="Ellipse_185" data-name="Ellipse 185" cx="0.573" cy="1.092" rx="0.573" ry="1.092" transform="translate(160.373 24.92)" fill="#263238"/>
      <line id="Line_201" data-name="Line 201" x2="3.213" y2="8.854" transform="translate(142.878 45.914)" fill="none" stroke="#263238" stroke-linecap="round" stroke-linejoin="round" stroke-width="1"/>
    </g>
  </g>
</svg>
