<svg xmlns="http://www.w3.org/2000/svg" width="20.5" height="20.5" viewBox="0 0 20.5 20.5">
  <g id="svgexport-6" transform="translate(0.25 0.25)">
    <g id="Group_417" data-name="Group 417">
      <path id="Path_955" data-name="Path 955" d="M34.837,19.095v-.474a1.371,1.371,0,1,0-2.742,0v.451h-1.4v-.451a1.37,1.37,0,1,0-2.74,0v.451h-1.4v-.451a1.37,1.37,0,1,0-2.74,0v.451h-1.4v-.451a1.371,1.371,0,1,0-2.742,0v.474a2.749,2.749,0,0,0-2.413,2.724V34.5A2.75,2.75,0,0,0,20,37.25H34.5A2.75,2.75,0,0,0,37.25,34.5V21.819A2.749,2.749,0,0,0,34.837,19.095Zm-1.994-.474a.622.622,0,1,1,1.245,0v1.651a.622.622,0,0,1-1.245,0Zm-4.143,0a.621.621,0,1,1,1.243,0v1.651a.621.621,0,0,1-1.243,0Zm-4.143,0a.621.621,0,1,1,1.243,0v1.651a.621.621,0,0,1-1.243,0Zm-4.145,0a.622.622,0,1,1,1.245,0v1.651a.622.622,0,1,1-1.245,0Zm-.749,1.23v.421a1.371,1.371,0,1,0,2.742,0v-.451h1.4v.451a1.37,1.37,0,0,0,2.74,0v-.451h1.4v.451a1.37,1.37,0,1,0,2.74,0v-.451h1.4v.451a1.371,1.371,0,1,0,2.742,0v-.421A2,2,0,0,1,36.5,21.819v1.127H18V21.819a2,2,0,0,1,1.664-1.968ZM34.5,36.5H20a2,2,0,0,1-2-2V23.695H36.5V34.5A2,2,0,0,1,34.5,36.5Z" transform="translate(-17.25 -17.25)" fill="#8f8f8f" stroke="#8f8f8f" stroke-width="0.5"/>
      <path id="Path_956" data-name="Path 956" d="M32.482,56.135H30.971a.994.994,0,0,0-.993.993v1.511a.994.994,0,0,0,.993.993h1.511a.994.994,0,0,0,.993-.993V57.128a.994.994,0,0,0-.993-.993Zm.244,2.5a.244.244,0,0,1-.244.244H30.971a.244.244,0,0,1-.244-.244V57.128a.244.244,0,0,1,.244-.244h1.511a.244.244,0,0,1,.244.244Z" transform="translate(-27.255 -47.817)" fill="#8f8f8f" stroke="#8f8f8f" stroke-width="0.5"/>
      <path id="Path_957" data-name="Path 957" d="M58.331,56.135H56.82a.994.994,0,0,0-.993.993v1.511a.994.994,0,0,0,.993.993h1.511a.994.994,0,0,0,.993-.993V57.128A.994.994,0,0,0,58.331,56.135Zm.244,2.5a.244.244,0,0,1-.244.244H56.82a.244.244,0,0,1-.244-.244V57.128a.244.244,0,0,1,.244-.244h1.511a.244.244,0,0,1,.244.244Z" transform="translate(-47.575 -47.817)" fill="#8f8f8f" stroke="#8f8f8f" stroke-width="0.5"/>
      <path id="Path_958" data-name="Path 958" d="M84.179,58.123,82.5,59.8l-.8-.8a.374.374,0,1,0-.529.529L82.235,60.6a.374.374,0,0,0,.529,0l1.944-1.944a.374.374,0,0,0-.529-.529Z" transform="translate(-67.408 -49.293)" fill="#8f8f8f" stroke="#8f8f8f" stroke-width="0.5"/>
      <path id="Path_959" data-name="Path 959" d="M32.482,80.241H30.971a.994.994,0,0,0-.993.993v1.511a.994.994,0,0,0,.993.993h1.511a.994.994,0,0,0,.993-.993V81.234a.994.994,0,0,0-.993-.993Zm.244,2.5a.244.244,0,0,1-.244.244H30.971a.244.244,0,0,1-.244-.244V81.234a.244.244,0,0,1,.244-.244h1.511a.244.244,0,0,1,.244.244Z" transform="translate(-27.255 -66.767)" fill="#8f8f8f" stroke="#8f8f8f" stroke-width="0.5"/>
      <path id="Path_960" data-name="Path 960" d="M58.331,80.241H56.82a.994.994,0,0,0-.993.993v1.511a.994.994,0,0,0,.993.993h1.511a.994.994,0,0,0,.993-.993V81.234A.994.994,0,0,0,58.331,80.241Zm.244,2.5a.244.244,0,0,1-.244.244H56.82a.244.244,0,0,1-.244-.244V81.234a.244.244,0,0,1,.244-.244h1.511a.244.244,0,0,1,.244.244Z" transform="translate(-47.575 -66.767)" fill="#8f8f8f" stroke="#8f8f8f" stroke-width="0.5"/>
      <path id="Path_961" data-name="Path 961" d="M84.18,80.241H82.669a.994.994,0,0,0-.993.993v1.511a.994.994,0,0,0,.993.993H84.18a.994.994,0,0,0,.993-.993V81.234A.994.994,0,0,0,84.18,80.241Zm.244,2.5a.244.244,0,0,1-.244.244H82.669a.244.244,0,0,1-.244-.244V81.234a.244.244,0,0,1,.244-.244H84.18a.244.244,0,0,1,.244.244Z" transform="translate(-67.895 -66.767)" fill="#8f8f8f" stroke="#8f8f8f" stroke-width="0.5"/>
    </g>
  </g>
</svg>
