<svg xmlns="http://www.w3.org/2000/svg" width="26.4" height="22.067" viewBox="0 0 26.4 22.067">
  <g id="svgexport-10" transform="translate(26.2 0.2) rotate(90)">
    <path id="Path_954" data-name="Path 954" d="M19.067,0H2.6a.867.867,0,0,0-.867.867V11.7H.867A.867.867,0,0,0,0,12.567v.867a.867.867,0,0,0,.867.867h.867V25.133A.867.867,0,0,0,2.6,26H19.067a.867.867,0,0,0,.867-.867V14.3H20.8a.867.867,0,0,0,.867-.867v-.867A.867.867,0,0,0,20.8,11.7h-.867V.867A.867.867,0,0,0,19.067,0ZM17.333.867h1.733V11.7H17.333ZM5.2.867h5.2v.867a.433.433,0,0,0,.867,0V.867h5.2v6.5H5.2ZM16.467,8.233V11.7h-5.2V8.233ZM5.2,8.233h5.2V11.7H5.2ZM2.6.867H4.333V11.7H2.6ZM4.333,25.133H2.6V14.3H4.333Zm12.133,0H5.2v-6.5H16.467ZM5.2,17.767V14.3h5.2v3.467Zm11.267,0h-5.2V14.3h5.2Zm2.6,7.367H17.333V14.3h1.733ZM20.8,12.567v.867H.867v-.867Z" fill="#8f8f8f" stroke="#8f8f8f" stroke-width="0.4"/>
  </g>
</svg>
